<mxfile host="app.diagrams.net" modified="2023-08-09T15:58:02.906Z" agent="Mozilla/5.0 (Macintosh; Intel Mac OS X 10_15_7) AppleWebKit/537.36 (KHTML, like Gecko) Chrome/115.0.0.0 Safari/537.36" etag="FEQGZFYomvxaIlrlw83L" version="21.6.7" type="github">
  <diagram id="_-UgdHPy3DLZ9YSsUcb9" name="第 1 页">
    <mxGraphModel dx="5830" dy="2910" grid="1" gridSize="10" guides="1" tooltips="1" connect="1" arrows="1" fold="1" page="1" pageScale="1" pageWidth="827" pageHeight="1169" math="0" shadow="0">
      <root>
        <mxCell id="0" />
        <mxCell id="1" parent="0" />
        <mxCell id="GBAzb-mn1tss-nipXTmw-5" style="edgeStyle=orthogonalEdgeStyle;rounded=0;orthogonalLoop=1;jettySize=auto;html=1;snapToPoint=0;fixDash=0;metaEdit=0;comic=1;" parent="1" source="GBAzb-mn1tss-nipXTmw-1" target="GBAzb-mn1tss-nipXTmw-2" edge="1">
          <mxGeometry relative="1" as="geometry" />
        </mxCell>
        <mxCell id="GBAzb-mn1tss-nipXTmw-6" value="需要更新云上链接" style="edgeLabel;html=1;align=center;verticalAlign=middle;resizable=0;points=[];snapToPoint=0;fixDash=0;metaEdit=0;comic=1;" parent="GBAzb-mn1tss-nipXTmw-5" vertex="1" connectable="0">
          <mxGeometry x="-0.1333" relative="1" as="geometry">
            <mxPoint as="offset" />
          </mxGeometry>
        </mxCell>
        <mxCell id="GBAzb-mn1tss-nipXTmw-1" value="" style="rounded=1;whiteSpace=wrap;html=1;fontFamily=Verdana;labelBackgroundColor=none;snapToPoint=0;fixDash=0;metaEdit=0;comic=1;" parent="1" vertex="1">
          <mxGeometry x="239" y="200" width="120" height="60" as="geometry" />
        </mxCell>
        <mxCell id="GBAzb-mn1tss-nipXTmw-8" style="edgeStyle=orthogonalEdgeStyle;rounded=0;orthogonalLoop=1;jettySize=auto;html=1;entryX=0.5;entryY=0;entryDx=0;entryDy=0;fontFamily=Verdana;snapToPoint=0;fixDash=0;metaEdit=0;comic=1;" parent="1" source="GBAzb-mn1tss-nipXTmw-2" target="GBAzb-mn1tss-nipXTmw-7" edge="1">
          <mxGeometry relative="1" as="geometry" />
        </mxCell>
        <mxCell id="GBAzb-mn1tss-nipXTmw-10" value="需要替换为云上信息" style="edgeLabel;html=1;align=center;verticalAlign=middle;resizable=0;points=[];fontFamily=Verdana;snapToPoint=0;fixDash=0;metaEdit=0;comic=1;" parent="GBAzb-mn1tss-nipXTmw-8" vertex="1" connectable="0">
          <mxGeometry x="-0.2" y="1" relative="1" as="geometry">
            <mxPoint as="offset" />
          </mxGeometry>
        </mxCell>
        <mxCell id="GBAzb-mn1tss-nipXTmw-2" value="灰度生产dremel服务" style="rounded=1;whiteSpace=wrap;html=1;snapToPoint=0;fixDash=0;metaEdit=0;comic=1;" parent="1" vertex="1">
          <mxGeometry x="240" y="335" width="120" height="60" as="geometry" />
        </mxCell>
        <mxCell id="GBAzb-mn1tss-nipXTmw-12" style="edgeStyle=orthogonalEdgeStyle;rounded=0;orthogonalLoop=1;jettySize=auto;html=1;exitX=0.5;exitY=1;exitDx=0;exitDy=0;entryX=0.5;entryY=0;entryDx=0;entryDy=0;fontFamily=Verdana;snapToPoint=0;fixDash=0;metaEdit=0;comic=1;" parent="1" source="GBAzb-mn1tss-nipXTmw-7" target="GBAzb-mn1tss-nipXTmw-11" edge="1">
          <mxGeometry relative="1" as="geometry" />
        </mxCell>
        <mxCell id="GBAzb-mn1tss-nipXTmw-7" value="替换模板库云上信息" style="rounded=1;whiteSpace=wrap;html=1;snapToPoint=0;fixDash=0;metaEdit=0;comic=1;" parent="1" vertex="1">
          <mxGeometry x="240" y="450" width="120" height="60" as="geometry" />
        </mxCell>
        <mxCell id="GBAzb-mn1tss-nipXTmw-13" style="edgeStyle=orthogonalEdgeStyle;rounded=0;orthogonalLoop=1;jettySize=auto;html=1;entryX=1;entryY=0.5;entryDx=0;entryDy=0;fontFamily=Verdana;snapToPoint=0;fixDash=0;metaEdit=0;comic=1;" parent="1" source="GBAzb-mn1tss-nipXTmw-11" target="GBAzb-mn1tss-nipXTmw-7" edge="1">
          <mxGeometry relative="1" as="geometry">
            <Array as="points">
              <mxPoint x="410" y="600" />
              <mxPoint x="410" y="480" />
            </Array>
          </mxGeometry>
        </mxCell>
        <mxCell id="GBAzb-mn1tss-nipXTmw-15" value="回滚" style="edgeLabel;html=1;align=center;verticalAlign=middle;resizable=0;points=[];fontFamily=Verdana;snapToPoint=0;fixDash=0;metaEdit=0;comic=1;" parent="GBAzb-mn1tss-nipXTmw-13" vertex="1" connectable="0">
          <mxGeometry x="0.7182" y="1" relative="1" as="geometry">
            <mxPoint as="offset" />
          </mxGeometry>
        </mxCell>
        <mxCell id="GBAzb-mn1tss-nipXTmw-14" style="edgeStyle=orthogonalEdgeStyle;rounded=0;orthogonalLoop=1;jettySize=auto;html=1;fontFamily=Verdana;entryX=1;entryY=0.75;entryDx=0;entryDy=0;exitX=1;exitY=0.5;exitDx=0;exitDy=0;snapToPoint=0;fixDash=0;metaEdit=0;comic=1;" parent="1" source="GBAzb-mn1tss-nipXTmw-11" target="GBAzb-mn1tss-nipXTmw-2" edge="1">
          <mxGeometry relative="1" as="geometry">
            <mxPoint x="410" y="390" as="targetPoint" />
            <Array as="points">
              <mxPoint x="420" y="600" />
              <mxPoint x="420" y="385" />
            </Array>
          </mxGeometry>
        </mxCell>
        <mxCell id="GBAzb-mn1tss-nipXTmw-16" value="回滚" style="edgeLabel;html=1;align=center;verticalAlign=middle;resizable=0;points=[];fontFamily=Verdana;snapToPoint=0;fixDash=0;metaEdit=0;comic=1;" parent="GBAzb-mn1tss-nipXTmw-14" vertex="1" connectable="0">
          <mxGeometry x="0.8349" y="-1" relative="1" as="geometry">
            <mxPoint as="offset" />
          </mxGeometry>
        </mxCell>
        <mxCell id="GBAzb-mn1tss-nipXTmw-17" style="edgeStyle=orthogonalEdgeStyle;rounded=0;orthogonalLoop=1;jettySize=auto;html=1;entryX=1;entryY=0.5;entryDx=0;entryDy=0;fontFamily=Verdana;snapToPoint=0;fixDash=0;metaEdit=0;comic=1;" parent="1" target="GBAzb-mn1tss-nipXTmw-1" edge="1">
          <mxGeometry relative="1" as="geometry">
            <mxPoint x="360" y="600" as="sourcePoint" />
            <Array as="points">
              <mxPoint x="430" y="600" />
              <mxPoint x="430" y="230" />
            </Array>
          </mxGeometry>
        </mxCell>
        <mxCell id="GBAzb-mn1tss-nipXTmw-18" value="回滚" style="edgeLabel;html=1;align=center;verticalAlign=middle;resizable=0;points=[];fontFamily=Verdana;snapToPoint=0;fixDash=0;metaEdit=0;comic=1;" parent="GBAzb-mn1tss-nipXTmw-17" vertex="1" connectable="0">
          <mxGeometry x="0.8622" y="3" relative="1" as="geometry">
            <mxPoint y="-13" as="offset" />
          </mxGeometry>
        </mxCell>
        <mxCell id="GBAzb-mn1tss-nipXTmw-19" value="失败" style="edgeLabel;html=1;align=center;verticalAlign=middle;resizable=0;points=[];fontFamily=Verdana;snapToPoint=0;fixDash=0;metaEdit=0;comic=1;" parent="GBAzb-mn1tss-nipXTmw-17" vertex="1" connectable="0">
          <mxGeometry x="-0.8122" relative="1" as="geometry">
            <mxPoint as="offset" />
          </mxGeometry>
        </mxCell>
        <mxCell id="GBAzb-mn1tss-nipXTmw-21" style="edgeStyle=orthogonalEdgeStyle;rounded=0;orthogonalLoop=1;jettySize=auto;html=1;entryX=0.5;entryY=0;entryDx=0;entryDy=0;fontFamily=Verdana;snapToPoint=0;fixDash=0;metaEdit=0;comic=1;" parent="1" source="GBAzb-mn1tss-nipXTmw-11" target="GBAzb-mn1tss-nipXTmw-20" edge="1">
          <mxGeometry relative="1" as="geometry" />
        </mxCell>
        <mxCell id="GBAzb-mn1tss-nipXTmw-11" value="测试模板&lt;br&gt;查询-导出功能" style="rounded=1;whiteSpace=wrap;html=1;snapToPoint=0;fixDash=0;metaEdit=0;comic=1;" parent="1" vertex="1">
          <mxGeometry x="240" y="570" width="120" height="60" as="geometry" />
        </mxCell>
        <mxCell id="GBAzb-mn1tss-nipXTmw-20" value="切换成功" style="ellipse;whiteSpace=wrap;html=1;aspect=fixed;labelBackgroundColor=none;fontFamily=Verdana;fillColor=#60a917;fontColor=#ffffff;strokeColor=#2D7600;snapToPoint=0;fixDash=0;metaEdit=0;comic=1;" parent="1" vertex="1">
          <mxGeometry x="260" y="695" width="80" height="80" as="geometry" />
        </mxCell>
        <mxCell id="Vw8giEME_EH66Epu51ow-1" value="更新生产nacos配置" style="edgeLabel;html=1;align=center;verticalAlign=middle;resizable=0;points=[];snapToPoint=0;fixDash=0;metaEdit=0;comic=1;" parent="1" vertex="1" connectable="0">
          <mxGeometry x="299" y="230" as="geometry" />
        </mxCell>
        <mxCell id="Vw8giEME_EH66Epu51ow-4" style="edgeStyle=orthogonalEdgeStyle;rounded=0;orthogonalLoop=1;jettySize=auto;html=1;entryX=0.5;entryY=0;entryDx=0;entryDy=0;" parent="1" source="Vw8giEME_EH66Epu51ow-2" target="GBAzb-mn1tss-nipXTmw-1" edge="1">
          <mxGeometry relative="1" as="geometry" />
        </mxCell>
        <mxCell id="Vw8giEME_EH66Epu51ow-8" style="edgeStyle=orthogonalEdgeStyle;rounded=1;orthogonalLoop=1;jettySize=auto;html=1;entryX=0;entryY=0.5;entryDx=0;entryDy=0;comic=1;" parent="1" source="Vw8giEME_EH66Epu51ow-2" target="Vw8giEME_EH66Epu51ow-6" edge="1">
          <mxGeometry relative="1" as="geometry" />
        </mxCell>
        <mxCell id="Vw8giEME_EH66Epu51ow-2" value="发布切换公告" style="rounded=1;whiteSpace=wrap;html=1;fontFamily=Verdana;labelBackgroundColor=none;snapToPoint=0;fixDash=0;metaEdit=0;comic=1;" parent="1" vertex="1">
          <mxGeometry x="239" y="90" width="120" height="60" as="geometry" />
        </mxCell>
        <mxCell id="Vw8giEME_EH66Epu51ow-6" value="时间+切换影响&lt;br&gt;切换后之前查询的结果无法查询&lt;br&gt;需要再次查询" style="text;strokeColor=none;align=center;fillColor=none;html=1;verticalAlign=middle;whiteSpace=wrap;rounded=0;" parent="1" vertex="1">
          <mxGeometry x="460" y="95" width="190" height="50" as="geometry" />
        </mxCell>
        <mxCell id="GWztILJF5QwJUs7Bg6JR-2" value="我" style="rounded=1;whiteSpace=wrap;html=1;fillColor=#6d8764;fontColor=#ffffff;strokeColor=#3A5431;" parent="1" vertex="1">
          <mxGeometry x="234" y="1020" width="120" height="60" as="geometry" />
        </mxCell>
        <mxCell id="GWztILJF5QwJUs7Bg6JR-4" value="" style="rounded=1;whiteSpace=wrap;html=1;fillColor=#e51400;fontColor=#ffffff;strokeColor=#B20000;" parent="1" vertex="1">
          <mxGeometry x="354" y="960" width="120" height="60" as="geometry" />
        </mxCell>
        <mxCell id="GWztILJF5QwJUs7Bg6JR-5" value="我老大" style="rounded=1;whiteSpace=wrap;html=1;fillColor=#6d8764;fontColor=#ffffff;strokeColor=#3A5431;" parent="1" vertex="1">
          <mxGeometry x="354" y="1020" width="120" height="60" as="geometry" />
        </mxCell>
        <mxCell id="GWztILJF5QwJUs7Bg6JR-6" value="" style="rounded=1;whiteSpace=wrap;html=1;fillColor=#e51400;fontColor=#ffffff;strokeColor=#B20000;" parent="1" vertex="1">
          <mxGeometry x="474" y="960" width="120" height="60" as="geometry" />
        </mxCell>
        <mxCell id="GWztILJF5QwJUs7Bg6JR-7" value="" style="rounded=1;whiteSpace=wrap;html=1;fillColor=#e51400;fontColor=#ffffff;strokeColor=#B20000;" parent="1" vertex="1">
          <mxGeometry x="474" y="1020" width="120" height="60" as="geometry" />
        </mxCell>
        <mxCell id="GWztILJF5QwJUs7Bg6JR-8" value="" style="rounded=1;whiteSpace=wrap;html=1;" parent="1" vertex="1">
          <mxGeometry x="234" y="820" width="120" height="60" as="geometry" />
        </mxCell>
        <mxCell id="GWztILJF5QwJUs7Bg6JR-9" value="" style="rounded=1;whiteSpace=wrap;html=1;fillColor=#e51400;fontColor=#ffffff;strokeColor=#B20000;" parent="1" vertex="1">
          <mxGeometry x="234" y="880" width="120" height="60" as="geometry" />
        </mxCell>
        <mxCell id="GWztILJF5QwJUs7Bg6JR-10" value="" style="rounded=1;whiteSpace=wrap;html=1;" parent="1" vertex="1">
          <mxGeometry x="354" y="820" width="120" height="60" as="geometry" />
        </mxCell>
        <mxCell id="GWztILJF5QwJUs7Bg6JR-11" value="无人" style="rounded=1;whiteSpace=wrap;html=1;" parent="1" vertex="1">
          <mxGeometry x="354" y="880" width="120" height="60" as="geometry" />
        </mxCell>
        <mxCell id="GWztILJF5QwJUs7Bg6JR-12" value="" style="rounded=1;whiteSpace=wrap;html=1;" parent="1" vertex="1">
          <mxGeometry x="474" y="820" width="120" height="60" as="geometry" />
        </mxCell>
        <mxCell id="GWztILJF5QwJUs7Bg6JR-13" value="" style="rounded=1;whiteSpace=wrap;html=1;fillColor=#e51400;fontColor=#ffffff;strokeColor=#B20000;" parent="1" vertex="1">
          <mxGeometry x="474" y="880" width="120" height="60" as="geometry" />
        </mxCell>
        <mxCell id="GWztILJF5QwJUs7Bg6JR-14" value="" style="rounded=1;whiteSpace=wrap;html=1;" parent="1" vertex="1">
          <mxGeometry x="594" y="960" width="120" height="60" as="geometry" />
        </mxCell>
        <mxCell id="GWztILJF5QwJUs7Bg6JR-15" value="" style="rounded=1;whiteSpace=wrap;html=1;" parent="1" vertex="1">
          <mxGeometry x="594" y="1020" width="120" height="60" as="geometry" />
        </mxCell>
        <mxCell id="GWztILJF5QwJUs7Bg6JR-16" value="" style="rounded=1;whiteSpace=wrap;html=1;" parent="1" vertex="1">
          <mxGeometry x="714" y="960" width="120" height="60" as="geometry" />
        </mxCell>
        <mxCell id="GWztILJF5QwJUs7Bg6JR-17" value="" style="rounded=1;whiteSpace=wrap;html=1;" parent="1" vertex="1">
          <mxGeometry x="714" y="1020" width="120" height="60" as="geometry" />
        </mxCell>
        <mxCell id="GWztILJF5QwJUs7Bg6JR-18" value="" style="rounded=1;whiteSpace=wrap;html=1;" parent="1" vertex="1">
          <mxGeometry x="834" y="960" width="120" height="60" as="geometry" />
        </mxCell>
        <mxCell id="GWztILJF5QwJUs7Bg6JR-19" value="" style="rounded=1;whiteSpace=wrap;html=1;" parent="1" vertex="1">
          <mxGeometry x="834" y="1020" width="120" height="60" as="geometry" />
        </mxCell>
        <mxCell id="GWztILJF5QwJUs7Bg6JR-20" value="" style="rounded=1;whiteSpace=wrap;html=1;" parent="1" vertex="1">
          <mxGeometry x="594" y="820" width="120" height="60" as="geometry" />
        </mxCell>
        <mxCell id="GWztILJF5QwJUs7Bg6JR-21" value="" style="rounded=1;whiteSpace=wrap;html=1;" parent="1" vertex="1">
          <mxGeometry x="594" y="880" width="120" height="60" as="geometry" />
        </mxCell>
        <mxCell id="GWztILJF5QwJUs7Bg6JR-22" value="" style="rounded=1;whiteSpace=wrap;html=1;" parent="1" vertex="1">
          <mxGeometry x="714" y="820" width="120" height="60" as="geometry" />
        </mxCell>
        <mxCell id="GWztILJF5QwJUs7Bg6JR-23" value="" style="rounded=1;whiteSpace=wrap;html=1;" parent="1" vertex="1">
          <mxGeometry x="714" y="880" width="120" height="60" as="geometry" />
        </mxCell>
        <mxCell id="GWztILJF5QwJUs7Bg6JR-24" value="" style="rounded=1;whiteSpace=wrap;html=1;" parent="1" vertex="1">
          <mxGeometry x="834" y="820" width="120" height="60" as="geometry" />
        </mxCell>
        <mxCell id="GWztILJF5QwJUs7Bg6JR-25" value="" style="rounded=1;whiteSpace=wrap;html=1;" parent="1" vertex="1">
          <mxGeometry x="834" y="880" width="120" height="60" as="geometry" />
        </mxCell>
        <mxCell id="GWztILJF5QwJUs7Bg6JR-27" value="走道" style="text;strokeColor=none;align=center;fillColor=none;html=1;verticalAlign=middle;whiteSpace=wrap;rounded=0;" parent="1" vertex="1">
          <mxGeometry x="330" y="940" width="60" height="30" as="geometry" />
        </mxCell>
        <mxCell id="yB86QWieqHnUZT1-Lt4l-1" value="" style="rounded=1;whiteSpace=wrap;html=1;fillColor=#e51400;fontColor=#ffffff;strokeColor=#B20000;" parent="1" vertex="1">
          <mxGeometry x="234" y="960" width="120" height="60" as="geometry" />
        </mxCell>
        <mxCell id="XJAstwMBB5YRr8NqRWwe-71" value="" style="group" vertex="1" connectable="0" parent="1">
          <mxGeometry x="1619.9968144466725" y="129.99701365219002" width="2972.532411184427" height="2101.8868874098903" as="geometry" />
        </mxCell>
        <mxCell id="XJAstwMBB5YRr8NqRWwe-18" value="" style="shape=stencil(nVnZUhsxEPwav07pPp4J+Q+qMMEVgikg199nFJfWq17UW8nbYnpWmrtn9uBv3h7vXo4HZ97eX89fjz9P9++PB//p4Nzp+fH4enrXp4O/Pfibh/Pr8cvr+fvz/eXvl7uGbE/fzj/aG35d5IwY24Sc+X35oRYx5e8vny/4p9PziC8jPkoJDO/9iPdiDcPnPOKNWDfHWwnjfUqSRN7vNngnzs/xXooZ8DlJzXN8lDDqm1Uj8v4sfrxP0hPtHF8lhQEfk8RK7OPEjg4OVTxRwAbJaRRQCzGBLNENAj7SK7WYqIOAahXJCeoEPzrBBfEkKFwSF0cBjVsWFVXc6Aab6JW8Ez+eYNVvRGm1SRiVtlYquZIvkkHASCKZeXXTSiCQUApRqkeBygSqZLCSE0OUjh5jSa2UidIxSxljyUaazsl2qy8CWXIkAhEFdkIjqdLjlbSGWOKH7MXBCV5qIgJLBi8CkYZ3XtJlEUhiSREum9BQAVYESuhFa3WlQnQouRtxlaKR+KFUrEtq1kROqFbMWPnUcY4EX3W9kK5CI7ATAtZirYWe1G5tfdCsNKcNMWtdesfSHaSSUNJebEerBlpkqgbGmG+GNre66SamG3mGzxs8yR3FFw94y5pb7SXxivfMY7Un1hWfSeI0PFQLsSRIrTEY1lbSjgKQaGLIAQ0PxaXzh6lBIQloPW0OS4AvOwGxwXODxgL4xBJA8VAmes7N8AHabPfgFA8tjVahhg+AZw2t4Uf/Gl60VF9MAFbZm/0t4Hfukzf4nYTEBDP8/qUA3u0kZAQ8o4IfJSS7/4cJGXYSDGo6pTgNjwnmOb5gwifu4H/DF+SZmY5DNYsD+5jOhWc9DD3gKTXQLgnkQ6kyrUEOi7StvItpUQYbuV7GZlwClFa2Yhm9yT3qF4FMp97Gh2CgKBKI0o1xJRRggdc4XUABRvcba4yoA6NojZfCCanPJDPmi80g9HIz5dZwguv1b8ret5yOKK3zAU4gSpHICW0CGRusRiujRG3GgY4TOkmaTlFwgqclqc1pmymKzQc6CQKL0hPoziIiDVQdGK3QaRbbYKKjo87LMMJrTjPm20INUtT1Vjqb+WFRo69gg9210yxrCEvNeh0UF4Hcu9fHAhF3ZSFQNmgdDhRR6SOrfDiQx0IrZcbunxJdrkVcKWhNYHw/iAW8+p3gHaZC4bljsfdoJWd02fbOtCwHl8CdLRNHD+sAxhymZA6WlYU2HtN3Ewu+0mpkMC+v/HaG37yfFWCDaVx5p12mqxWe0WuDm40VH5sJ2M0BhL6YvsZYK0wNhNvoZcCY4Tfvt1Th7Xacb7uBnSqerRz+Y/u+g9eH66r/4fT0dPlSsP4/fhrQny6fFfztHw==);lineShape=1;" vertex="1" parent="XJAstwMBB5YRr8NqRWwe-71">
          <mxGeometry x="1169.5011384004065" y="332.9428407198157" width="490.85064881491314" height="98.25180490472576" as="geometry" />
        </mxCell>
        <mxCell id="XJAstwMBB5YRr8NqRWwe-19" value="" style="shape=stencil(lVrbctw2DP2afeWQBHjBc5r+R2bi1J66dsZxevn7Qt2hVjqUztZvthZHBEHg4EJd5NOPxy/fHy45/nh/e/394a+nr++PF/nlkvPTy+PD29O7/3WRzxf59O317eG3t9efL1+v/3//skguf/3x+ufyhr+vuBhyXUA5/nN9ID3U/N+TX6/yz08vG/kcYtvLt2D1XF6CZJQv5P0aWtzL12B2Ll9DNpQXIt9DBH1KaER/C11RPqVz+ZRCLXuABiUKJbcQACR0BtBh8A1AlADqsPgKyKGzPfiRdgRIIwAbCqyANF5x7EVxONkGUMkecgo9IiCzFXIwMGsMRjbtnhcNAYWtUEJOCMgsdCpayb3LIgG0oBUBpRBAx5N2AFXJhm+ugB46WcG3KB0BSg5uOaa9lXxXdAVnmIiAyAENrFRDFAKQUEAlDYW4t0ewgEo5FHJwN44YgMRP2gG2PzgPWmN7qKHtfcl5pLE9uC/tiTvF8YpjQA9pv2lnBS5f9xqVoGzLFiJwxiDCM/kMGxg2O5NXOIOx4Jm87eXjcMTjROXsICDPeF6nxBBp4tE84uom38kBqwxz/7/9qg52u8lnpn9B+/iGCJ9qCwJhGSKT7yMn3eRZjJWVbG/+E4k9i6srIM8CpsggkSGvNEMVRbIuNL5KGQF+i69E/Lm0YY4h37n+hvbxgK8kwGoKaa9Q4mVClZDB4zwlshUKJo+l0mCAFioQrwcBycnVQoP0JHSFlkYy2mYbskKTqRCJtBBpJRTgOaEVcGuYPJzs2Tk0z8D7TTs30T1YqPus7+SRSez0iClW60iJx4CE6UmNukb3JL7fdMk0nLuEut+0B2AjGbPrtEIb7ngMKKHvA6jGkJhKa52yAtYIOQZ0pOxaKad270aAMyJNmrYWyStARxo9BmTsv9y7KEAHq6+0lGnJaV4b7a3UCy11rGI8uBkysZIDoGdzM7DUaQ15yXgL5gDIVb4rRgLWcdOuJLVSx3PwNZnzpRixbjbvyphdDbs8f1JIxrKpQvInLOT85z6pxOjbf64NAcZOzrDh2djhDCHzEmwAsBLXdhMs5mw665VvzwDQeZrRUnIBTCdHg9RGabEBMHZd3gcn13lEGM55Fg/mVoJyyQH1jm+kDwJa+aBKvU2b5maFScxiVrLCcZCyzLssMfvGHZ0UAZUDkC3XJ6d2nWiA1VhLkGLreTdIdfJXNk9arDiZ6Y6/pimEWLm+AKaTK/zk5iBlY7qPAzrWG8ZnsTa1EJ6FKgcgDRTaBFmdEqPey9XQ1XsFwmomm8rpzmdirkDZu0avtNH13K9QoOTRhpzVTED4XjPRkItYHXtVxjJEn9zb677GateGVFb5EK1PM2KvXdlJe9EGKnl1zKzk9Xfaq1QabWu8wk8wUCrjyVkPgSvkkWTOupQEfZCNIcFZHwTDTO+DGtl0m2oBFZq0WsOUssyZyKZbxRZZvJpl3WIZmX8FKK0FmkzDfW/CGSDh5M17aube3rXDFUhWOnp3Zwb2zmlM444BirVu4tdcNSORpcJHFVNMp3XMfDyf6Zh3U6KXLB4uMJ8xPiArSHyNpkTvn9PeMSqdintwNQg3Otcok1sojZ0ScUCsdKyvfbp5oz6hntxwIMgGcFqwm+HjMVUcy2RKLs4MMg1AmT55tHc3eWXyCcuwTInCiafi+1kH6vLQZCTafy4D94zvZzcYhhcMMhz89MJgr3+hxY5MLXenLbrLw1V4unPD0JBIk46i8hhQ8YohNTpmWO6ywaSR1jpO/dDSL/embAXFMtitmtgKgnWC08qd+z+dJrJUpYQVYeZtm8RpqmwjVA8B/nOd7mFZBnQFAOBrMivladAt/DbJjQjXeUtSJtHmx4SfGSRaTWWdrrcTV0mwf5H10v4YkPAGRNZK+hgQx7hpA2A5Nk1DhuXLB/apRJ9m7+6//NsKPGle4HkZAQEkvENayogJwC4OnYUafMhQxlXccTuCI4blNpo1F1h8OU+xxFYxoIWzmGLvIrxwEcyzzszKQmGc6EaeXc7H8bZV3mjiiVOkGZ3qR2yB774fuhbhHfCUl4WPF+PUIBi9yY/TJ1VGk840A3N5lviP5FkvO+vT6ZcL8347pdI4cUSno6M4xQsfD3z0k7z78v7H7fu/b0/Pz9fPB7e/4/eC/uj6raF8/hc=);lineShape=1;" vertex="1" parent="XJAstwMBB5YRr8NqRWwe-71">
          <mxGeometry x="1661.31981160928" y="220.58232059723952" width="408.28321821156203" height="283.1353296455645" as="geometry" />
        </mxCell>
        <mxCell id="XJAstwMBB5YRr8NqRWwe-20" value="" style="shape=stencil(lVnJcls3EPwaXqcADNaz4/yHqyxHrCiSS5aT+O89CAsI0XhsWjcu0+8NZulZcNIP3x4/fX04Bfft7fXlz4d/zp/fHk/62ymE8/Pjw+v5zT6d9ONJP3x5eX344/Xl+/Pny/evn7pk//TXy9/9Cf9ecDlLTB0V3I/LL058/e+H3y/yT+fna/kitS7yXpwj8k2CA/mcbssXJyUv8kFiIfJBsi7yKonoU6LUsshHKUyfIrrKZ/Httnw1863nNYMRfWqQturfJGUin8bjpj29xEAAVSI4TEWJRs1JA0AaPjwG6ObiIo7YtKURYhNQpZJDtzz+nkHhhtuPAVWCXwFBlFipbWFqcdTYGZrU1W8hSSIqeedGokxEEe/pK/KamqFKYY6omDvq+KlNgbACvDSSbc2SBbJNJbMz+PH3BFgwsfwpIx0nIEtjAIu+NZi0SiaAYgkRVwZwI8ePASpxNWv0VKVsb1gPHZUmddZNpSSOAFJFP8QsifghRfR0LNLibUA0Glr9YL9EEnymsV8PnRxNarN6XlVKlqOk9FjklNXTdipHwtuiv8Eb7BEE0Ll99UMqgz2PAR49nZoo8UNnxpUEsqckYGTt1+DLYVSw44yTAvUqSibyM7umvHUEJLjjJl9p9uiIy1kP3bDZsUklrU62Cp+IPgFrSa/wzGUS1pjoFZ7rs+ZBMeYniaNYeazC07zBtKmRFh6jzzXzjTHZ8/OoSlO+cXqUutrHKJw1MA37HWsH2PO9k7AGtLUDygqnR4K3doCVQR+GQyegUp6wHIO62UsviekOqAgohOsMkLc3VOJlv1UEAzR+BoijDmBnCFLWN1x1KDft+k6E1cnt2FQpjy1PBzB6NALWzbAkPQ2gG4ANAB2wBwfztUfGM0AijGSAPZoS83XAYm4ANiQZYFcpskOHYfVffYNuWd3oHGaAtHk63cm5zXGZedoADQGFEY2O5uA6lnjOpQ3Q+KHDdobGYingtNoBjF3ntPyOrHZb9LU74bpTEyfwuDmCdYY95bbYKFyldwIcdlVWIjyvcuC4PPqs46lkY+N0p0o3sKnSgpK2euJ5s41bjMpZT8f4cd1lMMJA/WvkcSoOupIwiPxQ3qH+hYeQxfyqz50ub5vNexdJnw99f+9SGRlhEbEumDU9W95blx2I/SNOOtbFK9GnYMdjUwIbdHoTBnNLoHs8bwMszAmO9uW+IZnaKOVIitmZoS+0YS0wmzZkOhsHI3GyKrYviWelVlzO2UjLpruo2Kra0Mymnbg5Lk5qOiaKgNRoj2DtS8p46JipWW2AzaunY6Tka6GZYdsxdzjHweqR7aKnc3zJuHWKjvqh+sHOV0skxnd9DQt7rTsFoQ2/Xi3C6PYv4KFVabS2bTJXXhOshGU49JzNbq0LobmwOpeJ49o2TIa5cbwFgEP3rSrbdhQsJEYLjpk1j9X01WaYVea+8oQzONpGWuWG2uMrbaisdEOx9YXewdSK63BjW8b2NWP56fMlC28d8+8EeDrDVLc129RIpWDDUKiNiiULXsOwXWG/FgIGoFsVK8cBkkcKCaO+9IILBrqTyHNlMQ0qla2QE/bMfuyVjuUjxpD1F+z5ipc8/KbgSJ71I12f7VqR6RPH31fyTJ+IhO1os9CXoKiPY0UtYnw6Sivmr7A9n8VDwvH37vPrpg/TP+Na7o598rgT/EX7v/fa+K68ffj/jvrL+enpcsV9/T/eadtPl/tw/fgT);lineShape=1;" vertex="1" parent="XJAstwMBB5YRr8NqRWwe-71">
          <mxGeometry x="1992.8600721191551" y="501.506489683288" width="114.73046919794267" height="516.4379962145631" as="geometry" />
        </mxCell>
        <mxCell id="XJAstwMBB5YRr8NqRWwe-21" value="" style="shape=stencil(nVnZUhwxDPyafVX5Pp4T8h9UQcJWCKSAXH8fuTYaRvJMD+RtWdRrW2rJLfkUPzzfXX+/PQX3/PL0+PX21/nm5e4UP55COD/c3T6dX/jTKV6d4ofPj0+3X54efzzcXP7+fj0sx6dvjz/HL/y+4Hqn7gYquD+XbxylyxefLvb35wdjn5W9pxD37b1z5PQCgVzACxRj/++LPfumfz+RS9A+NWWfKWJ7n5R9oeaBfaOq7RtldN5GwTiUI4AA1S7gA2UUskrBa0CiigBlWqHgGBSKOma+U2gQ4KoOsqeCDp2pRQ2I1FHYMhVDo0K+Q0DuGtAo4RWyXiE6WXMPYJgXA7UKAVFvKWbyiHtZcnEBVMylLLmyALo4ehvAzNFnSIEiBvzbwAJI1NGWOK6aramKo/cAQXMpO4qI3oGSzrgcySOAp6TdmosUtW2AI29WaHKqTUBbqLYUGS9lbRtQbNUoiQpga4uUDaBCejdHQdO78qlAHGoRry+AQBUBvK3clekN8qFw5dVeqpViBoClqCyADqnBcY2aS82TA2fIXurcAggwDqlQ1vRufF+BBOL88maFDG/c2KYtFZiiMVHTXmrYrZHdarzU4B3KlbQaQMeAIj4RAKcU2hLfBlHTm5M2gsCxzCmaS6MsgBT1lbp2KxeeBNjqswipBZAk9tuAYKXYuGIQYD5DgeWelYgOw5AGwH5ROit7VMaYmPq+YnGDlEmS3FrZd3BHe5sKr2Jx095R1yxaqdEdgBENYwGwISeUWdsDXnNNdda+AVq7yUFdpNme/fT7BZ7XplmHnHZWC3ecx5y0wdoHaJ+n83qgI52tXMMe+JOLeX/P73spnG/cvxep/0b/cCGd/Q8I7Tf4ieLr5b9r/qBuTaL/Rn56qxEO+M/+n/MF5le1vdFRAqcpwLhCzAdocEN+digk6HzgghN+skdXgNsgdIT7MbJxEBomfJoqLuqi3msfrVDmGwBplWR18riRAB/K5M8KZUGdbjzuhVHHJemxurJRd8N3vA8WgAjNrbqRsKwiIKBOdwweoHCr3kzMPPRpCFNVcSLMtwGTLmD514CXWKiYe48FJmqH4lRYWMJWxLsktFyJZAiok+bNImq3meqt2GKhXxAg2zg0LDC5zTXU4N7DgTPkPJ3BwdlUcTKfWPqnBstdmfKNu8KG8s1JuV0AiSrYEreIc5cJM7rbSBc84mAnmokFd8qo8WUimGEW9+KolWBumjHNaFTxeMDMRHKD5BsDCH1ojj261zjlTdXIUUK5N0QxkWY6BhA4BhRdKsdcBw1Ronh9NTmC47Jo1deYTeEVzDArdlhmxmxKR3rM1xAg2XI/JngYEAwgwAQaADMjdFBhMMBo8jHnRIFLoijWk1S8pawv6TGrxYc2cRhCGo2Ps70fxrwZnSHbCZ4vOB+mYvx6Ee+OwA0AzxP6UhhftS1+iKjTLYrn01VqylJlYO/I9ma6lkUcb9s3WwGiTEj27E3zGKQ937M3VfLg4ajZOTB+mRpKUyfCwctXsyOmgzFzs8MBJ+8we/bZ7sfj/Ztm0Mk9tGdvnlDc0UOcs/uBQ+9un5kO7c3rxuF+8rvO2+WR643+7Fb7H8Rr0s0HfPiPl1Zszx9en3U/n+/vL6/C6//bZ2D+6vKEHK/+Ag==);lineShape=1;" vertex="1" parent="XJAstwMBB5YRr8NqRWwe-71">
          <mxGeometry x="976.6079489009098" y="429.7612106923239" width="197.8747056874863" height="387.93880915346944" as="geometry" />
        </mxCell>
        <mxCell id="XJAstwMBB5YRr8NqRWwe-22" value="" style="shape=stencil(nZzbch23EUW/hq9TgzvwbDv/4SrLESuK5JIVX/4+jbBmfGb3nIXQbxKJzUEDje7dF+Alfffrxx9/+fAS91+/ff3yrw+/v/707eNL+v4lxtfPHz98ff1m/3pJP7yk737+8vXDP79++c/nn97+/8uPc+T817+//Db/wh9vuJi3FCYq7n++/WTfcvzfD/7xNv7T6+fr+L3J+JJgfNq6jq/099NWs4xvGcenIuNHgPFxG+MyPmyB/n7cSpfxueL4UGR87zA+bPX69+OWaf5hi9f9StteYLwtX5Hxjea/b2m/jM9bgfFh6P6WLcN62vh8nU9FfbPxe7yMb1tpML5v9Tr/vvUdxwfRh/3YwXtAO9bvBNgWwgkwQLpKENKxh/eAqksa8tYHAvJVJ+wnjRa1bENksGWjXS5bucow9YpkKFu4bsM8eKQX+fh7J6BsiZY1H78+AW3rJHTaxvWkpR2PmgHqdR+SnTWSwWyRfKHwsqbD9pyAvkXS1ngYt/N0sjk1gCxrjqxLUXc652PdngFEvXPdBssQrhuXOx+gcGjOaWLsiJINCFu7fqGEQ6pngHw1AiUeZvMZQKxwSWjmzaj0q9kr+TiDzwCiS6VuO6zSOMzcOb4d6/xk/C4im+rBotpvryajDDTczupVIwqwpFV5SLU9A0UtOp9qmgunOW/xqhM1HX/hdrz9tut4Mi/R+bXMR1n9so1Ha6R+ysaTvGafmxsP+2u20I2nU7kf2vI4Hk6A4xW1oDG1+bjxRLxMu65GotaDOTxbn6jjiWgarRR5G1tetz59Mb6Kfg704fGgfScv2ploql1v9hdQ//fr+Wp2ImB90uHpzvEZ7YO57+t+tYL6aYTiah9a3SraB6E4zYgbjK/qWVs/TPYT+6Z//2TCT+ytEKJuGkVeb1eD2COzj3Cs3wlIaNHNEYtP6vkIvp5RLvHcvW6BaaMQ024cjYSuSrn6OH7yjFyPq1oPO0jkuW0frnZ9JBTaG8ZROOK1gO8q9GgcYiYlE6NvCVQ1Zo0Zx8CzacodowKImE4qHRyAwsxxRH3/55RS0DyCCZ1B6BSd0A0dYMpqgUdFD2tkvcsqFaYITX3aOLMj94CubHxENNrG7sXKT/WGL+SgUdHgIMfCAbUaAxMKOalq2Jmm85CLytALWmKLH0QGM2Qd9iG3wxOcgIC+M48jfngw3gn2obgsSuMgx+KHfJWhZQxnLRwQftfOKOYeUDSRZYSB0grl9H8PjIc8nBH84ikeKJ8xduXYETnV/LUAwhGW3AOyshKbJLEAI41RwqLOYUjV/J2tG5nKeirCQ6A2aEpNIwUDkCEzgMaOFeNfY5rhasimspDQXQ2ZATpNyWx1V0CD8zDJb3vnlIRfzSmR0C6xOKcEG2d8WZIvBiCGbgcyuFWiXKcxbI3h2aE0l6IyADkU48xdVimjQ2mOLxmAMh3GUvXEZbRLxlL1xGXMwHZXgZipEZpSVcduq0QEq3fNIRsg0RfG4dEeAAWW1ZysOMWprSC0uXFNmxe0GsOZypkPIkC6MTOBpuRtK0fQBihOW8mhGJ3SLyyWtdyYmUhJreKWNR95kHtAPVjqAwC/UJ3QCa2GAbrLLVImfEYLVQHk2A0gUVYJR8zyDCC5hslvSOimzNgAqBpNDZlRrkQy9LukMGlr3+JVvY0FEiObMVVVQCDl63qAjJiSuTeApKCM+hJfGmdG6CHXTkR3Aq66ZGwcrUbXLKABAm1cV65hAQLFcQYYsnHhWOh7gIUXUmDkCvJwmeo00LEPx+4ThzQzVJUaacdwwACS3LZQEM3McJWhdoTkzwASPyROT05AUwAFHAYo132w+HewDJJBnNUtOnHOi6aCKfEJkHKYWW/eBw9YCS0ACy15WT0ADdk4wosTwKWkWwCaew8ImHm/Bay+IELvzGbuAHkhtBRvB1ZXvPLF89A+BUg9uWPWwZ8HA6C59zL0lZkRcx/b6gvip2dVjdVbkvAGQDYzjqjtAUDdD2No98MEsGp0JzTy1nEEMI9fYG0dbpUoPJ6A5lYJa7G7+qy5Ee9GZD6kw4lN9c8JKAqgVMgEuCktLFPPDsBfaE6GFcApx2JK1W3dQmh/hBbLenNIeeM8YEGAqltWUr8J8CeCFby5LyyOUHeqsTqk7zUDw63SwtCM95oyyYcujOWTM0r1r3cjhuuOWzsVXdil2xLCvnaMeqqXrrcLjVs6dw9Y0AfxEWuC4gELCqSAJcnygJWxFKGXRNEDFlRUAUuyqzJwJm4CpLe0rHRJSgqLhrcJECpasQvBExQD5AUFcl9YMUsXmqUF2Q0KwLSXj+U6trLMaFFkGBy1D82IpoF19uGq4DMIZzMj7RcW5lNdcUbtkhewE8epCuEzM1XB2RMhijkz/+7q5WZrIy1rV3qSCwfhXdlGrth4eJMyakff2dOklEzJgg5OrGk/d+dcX9cCWB7sspo63kV75nCFSANg6q5pIbJwk4cBtKTAXfUGEG0tCTtbRtVKfuEatQGSq6MUErpolFIKm8pyNOo/Ztdp41xL1axB0CplpbqzpEDa6i6LlMrc+K5ogcoX9YiWhX8IN8VU9KK709bK1SaXqpjLCkagnyf4AUDF1FkAcztNvTOzxOYql+Tjbop4Ben6TZnQtHVRiHQlNopRmi/tMDlpydmlgrx1lmsdgMzMLAg7GcgItF0z04XpzyxqO+UjoavLrs/zwIX55gHUvtCV/kwAdyMkJ3TgL6jyVaQO1Re1K8bstbn6LpPE2eQhVT8miQaQVhgDUHZ9Nqq4fnxilTW7RpXBfSdRw4EasM2wul6ymvAKQnHZmcqV/NI0JWU7Q0T3rxL2CRi408VZvtn2zI1bwsha5nsIu9ql1pA6GJ2SnW4DO1Cza8bsAa/kzDqla+yluyBGa6Xk3NkuzbKjb+zlNkPJTJubTCR0UKI7+MaZBTBijAevUurq2I19kF2acaE0lGYsE86GUvkC97gn1xQ/eSZsXIqa6Zulem67Fc43oyLqZh5HqHoCBspw2zpMdilWfwNzxzMas4ZZc07UzpycbnRMG8/bOa6HG69F70rvBze5znutAkh8ba5p9Dr1mwBV4wE7cngFs6itNGZKlCxkjZo6s/UQNf1jhgmnFLQBqCe+/rur3zUqS61e7npxD5hmbmrtOwe7VU+DGXuKHoqGJ61jB2BWkjsbk8ly602AyavJwrhrQ5lvDrhrNAnZYVSbav4ZL61o0qdxx3BQ81UHBmPhiFrO8R2Zob9mx45wV/Y8qSVeO9NrcxX7cVxTa+UepF2P8CSiOH+JL+a1Qlwfaa2pGfd3v7tGidf+pB5duX8vaAQ2eTTqm14T5CseUXvxasK25aTn0cZTWii7+XM3YXHXRiP24LibQrOpH85Xc+P3xTViH7VgYsFlwRb5TtdnXvm+++4aQAs/I7BrD17hJiXzYbt8IWEW2QDSXWZByeKCvDT4zAZQBsipmf2ctErBJec7PwsS1Q5ZUII3/6JS30Vyfj5U4AoMiy9IB/WsebAMUoK2kIF893zXw7XUUexoAEnvGKGnLIEBhASmffVKhkR2s8OCAdrVxC3XBtD2m8U+FK1uTadIB6hooBY6doyGqk5ncmFa1qpJsPkcCe10c6/88DM8BpBnaQK/I2QiimMe/AyH61ZeXDfvLm1xMLFn8YoSEX7eYLj7Cjg+utRoxvL5fEZKiqqYCIpBu4gjv4PkblNHtJAxqpUPfEs46tEPmC+fxPq6/js/D5C0JMxNGzGpvDvyrpg0m8jPJs13w3Q8ypu1xrHMCUhWbTk+ufmQvrnUzI650DnezZ/WM2uH+I4NVXO8youXzLO+p7FjsutuPBUe7uZDCfI7eSkfeLeelHuL7nmoHesgf+MdvMV4+8dfj+79/Prp09ubfY+/10f67EdvD/ylH/4L);lineShape=1;" vertex="1" parent="XJAstwMBB5YRr8NqRWwe-71">
          <mxGeometry x="650.9454446374614" y="818.0812362884742" width="1359.3885316922563" height="734.6233131264656" as="geometry" />
        </mxCell>
        <mxCell id="XJAstwMBB5YRr8NqRWwe-23" value="" style="shape=stencil(lVfRbtswDPwavxKUKInSc9f9R4Gmi7EsKdJsa/9+9AynlhRfkTfbuYtI8XiUBnl42z+97gbPb5fz6efu7/h82Q/ybfB+PO535/FiT4M8DvLwcjrvfpxPv4/P8/vr04Scnn6d/kz/8D7zSiENE8vzx/zFk7j/H77P+MN4XOEdMzFXhEKs2wRbwJcK7yJJAQSllOuIPDEIqQhprAmFYtwmZCWtQ5JM0+sWQQsVrQhBlzVvExyFmhAtK94mJCP4ipCMELYJkUlSRdBMDAii5OqQcibJ2wSfloivhTYC2CUfyYeWUAQQ/JLilVAogG11V6mtCBmE5AKVOoeVfjf0TbFbogB9J4pdDgqSlkVpKzxqOKaS2k3VhPBte2ZyIB6m0MSvFJAsuiInyqCdTRTc4gMoWVl6fYV3yJCk9RcjILtw2lUYr+CtN7uQAiKEG4QMNGQi8rErAiiyERrLm6oMZG1lyF1vKrAL02mSVqce1NmEJLElKOrNRNKtUEDSzrfS/qqZdTGHtV2AXgg3ejOAurlOSRlmwK0FT44KimD4rjcV5Hsv3swu1QnbaEzIsaWbOgpbQYRKHZLNNQYWH2Rxw9XkZOQvfGM2e1CE2PW/KBwiNptLHZKZlAdlS4Fiva2mlAx2KZmfdGckuELuTA8ewgwfmyMSHDqpc2EHh47youNPvAc6Ur/MmAXPpCB+jW2+NrZQ4+dW2AyHYLappg0eGUu2ESP34Et7psXx2JG2sTqcb4mt0+H9NF8otR5wvW4c4qEe7r1VfI23h88rzMt4OMw3oPXv7ZXHPs3XJXn8Bw==);lineShape=1;" vertex="1" parent="XJAstwMBB5YRr8NqRWwe-71">
          <mxGeometry x="1604.693025375741" y="359.8319262833109" width="9.547011970132644" height="63.8630755806535" as="geometry" />
        </mxCell>
        <mxCell id="XJAstwMBB5YRr8NqRWwe-24" value="" style="shape=stencil(pVnZchw3DPyafUXxJvDsOP/hKsuRKorlkuUcfx9MtjheNmd77MqbtIveIXE0GphLfvf18cOXh0sKX99eX35/+Ovp49vjJf9ySenp8+PD69Ob/3XJ7y/53aeX14ffXl++ff54/f/Lh81y++uPlz+3X/j7ijMTixsqhX+unwSp5b8Pfr3aPz99pvZJQrxvH0OQEABgxh/QJ/siMVP7Xif7KjVQ+1wm+y6hEnuVPtvvH9yzh/vGIK0RQB/32wFJGjtRk5hmQOFHKmJtBjQx9oQsOt85msROAAmdlKJkdukoDQBZCksLT8s5zB7nRuKsJgUAnbpVVfKceMlTi2SeeuBsAuQoxo5UpQPAc5t4SQtGOjfqJU3j93aAiul9QLdx4r3aIs3W3qXMRypFMnuC5+Z8pLL77RgQMfmqUwgBNC/I+Ug1DZI6BjhDAMBzidyhJUkz6VWVQgD+tc1PaJFG2g9QZy+1PPx2DHDa1RnQJJP0Lor14H5TUtMe1zbXg0cmJwIIYjOR9UzdmrukuR56HT9xDNh/bwco7T55z5wdYLQeUsMS1SideMlpqwHAiYyQgPdXnd3qVW7ErdEDN7tVmySSGnH/egd0qaxHewXPJOBc2Egc4kL3zraMW2PEijMuM7xnAs14x2A0s3R1b0msY6mkjvaUM5BYvakmcp4ykmC3r1JI0Dxp4PxeziQEVXROu01GsJYufa4c29vdvQCkjIDKss4DugCU5XUYObYDXGSQyjl4gkedNIbtDhUBjQkl0YD2Su1TQXujSddAuH1Xx3cAIS4PIAfqoyvd2HfWayV0tK/kAg1b8xYBcv524NBAcqKh9jcutrvkiPZM/HfRxZ61NB35dWOf2DCyxOvMvoWfOY9ndFwATBBuPFoXjzJqD5ijZicDnlRDAMsJB+SGAMYshtPLSVIb9suTonGagvnrtCrTWpWkajrOOhutEK7+Wft8kNW0fS9V06nGWSb4rTeRAITh7pvex4g9oarz3spSrgxv3PRudn7vjHDfSHuxoix1sdJJVRpqdzU6B3oFmCKA0eKmt0ACKgcUbPeuGVkNxI7MtQ2rrOxtuPBGxrL5w6OMIjONwjsG1CH4bqR4Ymmky3RgQ0Ue101CjbNNtySRcsVK84GlsPnDUNb5SMRkacmoM3sYzzwGNNzHNaXF6cN0nePQdi15DMjYlH00zeRIdenKLdCe41/XOXA+PwdSoH4AUL8+PyemWxah4/MzG4nc6xCHwpdBHtcAgEa1o2dOh82Lsx4D6HKkOIaeYxoLIzdvlkGNb4/yTKzZR0kmjwp2Bp/Q2SzrpAI7thzpisBpq8Ke0MYoeW8pB/plE8V87Qdx2IiHeWkZpbwBJ766hH6V+DLI2xMsUqJSgWEZ2Tu2s40w6EjvGHTtXyUsS2rWQ23ZdcbA9/INU0OHsLxnDw9oNPW2+Xi+MqduW1is0C2k20NDPHnP0ZfMpqJns5+z6ORFTUdSDWf3bWhPs7pjVjtlsgWNIkHyre42CeGLqcBGKcU5hIt4U9zDndjb2K/84HkMN0An9/VZEO9L/WlD8/5gvGy9L82H//1iEO39j+9vIT89PT9fX2Lefo9vLf2j6xvP/P5f);lineShape=1;" vertex="1" parent="XJAstwMBB5YRr8NqRWwe-71">
          <mxGeometry x="1473.1962857481776" y="423.0678581310961" width="134.5748472012095" height="289.2252649094371" as="geometry" />
        </mxCell>
        <mxCell id="XJAstwMBB5YRr8NqRWwe-25" value="" style="shape=stencil(lZtHkhxHDEVPM9uM9GYtcw9FiBQnRJEKinK3F1KjLHb9rHoj7sYAnQ7m4wP9lL757d0Pv755iv63z58+/vzmz+cfP797St8+xfj84d2bT8+f7aen9N1T+ubtx09vfvr08fcPP778/usPU3L+9MvHP+Yn/PWi550vUyn6v1/+MIbz/d+/fP8i//75w0m+1LN8c7WQ/Mhn+epqvZcPLqezfHEV9hOdl8/Prg6Sb/0sn3A/9t92lo943rzJh7XipXxxbai8j/fyzXm5f+8SnLe7fH7fPtwI9/L2302+JHiv4MqmEOHAIbmYVCE0UMhutG0FMqHqWt7OAGcO3ZW4XRIc2qw6dn2F4kHBzNTrMwcya7O7rAr/edK1QnHxfAYz1AaGGu2WgnoCvbSZUhDXzC7SCsPlrgqdfM27JsZdXIJbSnYnQxXI25IZnxy6YrhL2WWvChH8LRVXtoCHZ6jbS1eXIQKktgLc4wrwDqmvCPqgEEhhuLoF4Q7mnb060Hw48Lgc1o4fTKORQlw7frDWAddqCiOpAh06p+2WbE146ZzXMz36NDhQLi5ssduzwjhba+9u0DtUzT69uUYrND1DN+Ojd+jrTg6FzO9gOz4fuieXIdzn4ZpsKWDUKN5lWcHjw5WgZ2h9oY47hS4KdtHwDiW6Igpm3qRgcen8cC2ix5mCmHfzrkPUKHnteCnUvqLttULRLdW6wsKdgkC9mtfLXCvY553Nu8a15rVC27ZkL02HbstdlkLpztMKfdnmoVCX094pSAayiyasUYYC3MJxyRQEsZp10RnqBunNfiM8nClEUfD40qYgid2cdvCW5JZMIYJ516Cw1eIIXatZTji/9Axt8HCmIEDXgicF45q2MzD8qWUd8VAw8wYIZ/5VzqZhedXTLTWNrYYNCr3DcOm8gsEVMg0LKlVWSFyeBL3W5BG3trRw8FIwnEm2ZJFUoMOsiSDct7Is51AoCwVeK1Q9tKFxQjOtrVh9KAQ0vrYlxTBW5r6u4izOnWNraFjGWc5M5y1ZVUQe16NmUau7KjycpfFyfjir7CjtGlAQgGW1Ywfo0MvCLoeCR5DY95IGuQADR5KALCXSK3SN3W1Z+7X8UMDXMGKYfJeEiDBjlv5d5CkzmHyXQM+fH1a8+iJPNmTyQg5xvWfyPYo8hS8D5EIdZEz/k6o5Z/OEKGxsOYGhqlUUcYg83s9WYkSkGawmEq+PGCVG1lIyYiVpRZrGXixgxu6Qy6Cu5avSJGE53J282H/A0nm0LchhBDJ54RcC5tfRFzG15D3bc9fa32P8MXnxR7/ItGv5ofs3fED3afEkfaX8UHm6/6GI3y8S6la+i3yG+w/eK21mFwoLXCqghQ7lFsPiV2/l1QMIP80b1c8nqmZsGSDgDU2LyPr5/GKag5GsHRsTxBTHlNf7xwg3tFD2HKEvPj9/1f79q+dVC8UMs90/MzrzfXX/GIE2+zmKu/9pnx7L193+DVIA6Lt0MApZlwqEsa5ixKAYujUsmFjfY5x5DL9wVw+gfstXy/eFgR9yKsXoviDSgzzdZ9cqNCBfN3Pk+X6YbZg5WDEH5oCqOS9yhKvref4nBtoaanHVWnfygnET20PWGiMtvvJOPirGxZyalO7JSMiafBJaAmskkxd2KGO5PbaGacFunckLxVCwFJ5trSjy1LYy+ao1DL5vUPupjBG9RtC6eht38sJUVeQ7Zo13vs+GGWz2OqVdihnJatTiRZ544b53k7jsr+pf4RgJuKviFdIErPJ6XgniUIgry94xEQpq8poKuOM6pE4NZqREFITlgw/0C67gNaqEjmdoY0XZI2xxR7k19ZsZeIkGq+rI8Sgv73gzwU6RGdKWlTyf/AgpbPVzHJj8WtRbSjxd0bweOiUs4epQGixxg7j2RT4eCtxMqhu7mP2CJHc8skTUnBDU1Y02yMzb1HRBniMXHtcAxiM9T9R2WHXboTAwTZmCUGfF43RC9crlza4HrbB3PSJi6zKUtC2v9OjGtqW0wOGdgvANhZNt6WpLpaIDzfaXZPOODeLS1B8q4/e5AekzxhWp7hRkrMQMPtAZypZxG0a+kjUI1MH93rw2cOTogMHY3lW2ZKENFaIyORZtCQZP2xSFtsLCtUJQXN54zKpsDtS5c2Me3KXvHhE6mILfZgeID7egItit83iPhS0dRmtYjeQtKU78BLF1NgllSwMTe97a6INJxJy1CzghMg1MJMVLE+PTltJiAQ+FjLxgjttsWUZaLW94aXCnIe9jpdyumiNKmwIxR5aVmwxyNQz3qV0o0NjhxSAXu+gcFUvbCjRblrXfMxXo0EknXeyWqPpPQfmgOa5LCl6ndV6Zj5tDgXJLBedQ4gawZtuCBxt1BDdjuI9bG2Q2amiFpKHSql7yh7hfa0RUOWlKMW8mgsNW9s0wQ0xe3R7OY7NojuFu02s4t5u0BprjbmAaYWsfDh7k2sjLeQSqyrZ5VJ6ZagqLJ5lAyESprRm5afpOyePZsCT/38ZjE6LuqFSnOQLLC/w0T6NkGHQCYFSeFd8GiBuW3X4xQYd8RxPdEP0YOGDgt7Q2EPH4LZoO5Ka9zqw+sOF3CmFbAA8gaP7VA+xf9iAs4hXszH4HuLzfgMV45cshOhXPXza4kidy9Go/lJyO5s2DPDUTvv7LM6/J2w9fvqnz9vn9+5cv+jz+X7/ZY396+VZQ+u4f);lineShape=1;" vertex="1" parent="XJAstwMBB5YRr8NqRWwe-71">
          <mxGeometry x="1116.3032810049353" y="451.1844991692711" width="930.8842994311044" height="274.8889046637237" as="geometry" />
        </mxCell>
        <mxCell id="XJAstwMBB5YRr8NqRWwe-27" value="" style="shape=stencil(7ZzLkhy3EUW/ZraIwhtYy/J/KEKUOWGaVFCUH3/vhCeqp+tm94HplRfajSjcLjwSmXkvEnjJP/z28adfP7yk47dvX7/89cM/Xn/+9vEl/+klpdfPHz98ff1mf73kH1/yD798+frhL1+//P7557f//vWn1XL99bcvf1+/8M83XCzh6AuVjn+9/UuOoR7/+Zc/vwE+vX4WwLgCUigVAbFeATnEhIDUFTAGAkq+AkroBQGtXAF1BxjSpRZGA0ANUb4wwkGDrqHItM6QMgLGdVrLEcoEQAspXgExdJrWFmq6AjYL10K/zlIpbEstTBlDDZO+0EOUMfSQaR16SDKGEQattAHaBVCPkDeA68LVeBrLU8B10DWHwl+QDVRrOBhwXPdDbaGRLd2M+QYYIdEX7Peu01onT2sL+Qpokb2GGcK8AvLpeJ4B2tU0mjkB3kDxaq3NOsmOrB9XQA+TjM8839U02gyVTCOfy3QCejw37TPAcXUzPZ1u4TEgqavsmy0adU/3dprjM4B2qYdBY7D9JV2aZycfAqZO0oi4HWzDXy1ppNBgBCNE+X0LSDBFPZSr4Q0LJjDgpmY0bIOD427hkPYjNOhPPf3Vrf0ME/rjzHpG7E9RHzxTyNDeGfXMZ6x70j5Jfyy+wzZLGghnDQn6k0Jt2n5i+yy/z940nUHy1r6HRoE5TBnvCJUcl+7IOU+LfdJe7GeyPcSQ3e8PCsoaYre/f1TXHrzioblXPI5zSE8AbXwnoEzXI7A457FWe/z96H5/YHtJsa09WdBxppZ37Sv231sEedxD8wlrTzvMxut+P2J/JDO19gfFGNf/gf1PobsdSeubwyzavkN/zOMObU87uCvnsvYZ7GHoDrD2mAAebsCNU33zic7HbVigZL0GoKCx8jmxobpLk2tUAHbJbMb5daIry0/IMt9C4WNAOlfpDkDp2QqV8oWMG9livcYOplxmGkImLBiT6WXzdS7aT7AlY/fNATIs3OLeYhoHJoCLSncFkHvJNwp3l+HQF4qLCAYgUleS7mjLuYiYGjMWumKASl2quuMMEMH4jOhKULC0scE6GNEVjmYAUhSM6ArPHOY1wE0a0RU3Y4AEXTKiK8rOSpXBL9WiuZ0BEgGamvco/IWuvn4U/sI8yfoNkNH42nFazh2AjK8l94WECZUx4zkUUMFaW9UU2AAUoJvTXYxzUQbTxunn7gDE9/tty98BaD8YM1Zad2CQ7vkMH3cAyhp6dYM+0BkbM+5XgDHZDo6sj5AdAGdpqi11zv1tEkXDs29SMm+2eUwFVGLXReODAcgJmI8QR2aAA8zb3JaOoZ8U6DFgKKMyQIU9veKN+0KBWbIQWJoCKGRNF0U7k/6VKDgZJcIsWSpSpwIO2NPTCchmv+RmFu0dCiAhwrJUSX86y7vT5XwGyAzQlS5nJx8Dhop+BiA3s5hRUgCu9FD5wgDk7h/MUka9Y6XmTvQjz7dWWsYQMWQZ4JB1ODBvNeMTzayxI1tprYivA+Vd20DCEVtDjmtbVAJKY9XcnIDsaYurjVzlzbnfAOn0588Akv60eCrEzxyZLJwlExuAWKulK5FdpTjjOjATMGfc5ajgdsTy1Htf94PlaEh2uy5crWdS9wwgckMt6JcsAknOZ4kpHRW858E3QOII1M54cwNE3KIGyDJo23G0Ds0dbE08RVph9zpoIwiRAP6AsWE2Y4B2naXC3tsAsuOMRuG0ViXgRtTQ+Koqb4Ud2QJcv7COYWlPV3d+vklOqsoUue1mSfTSzAdbDwAJ5a4HgIi5hgekiYdCDwCczTwAsJjzAJDxCHMBrqaRItKBZRrXL0RWcRdVFcA4ZYWn5i3Cdd8Nul7DbmxYZbDo9tW8Y8UkcVQnvheOD03XIWYOik0PSZcYSbPU1AnEiFmlASQoxuPkjk8BUQGU8/kxTM4c6rmBb8zyZPBPTU8IPrs9zwW4P0UF/o3d5dMGbnkJB9xbhdB7e0r2RlSay9Lv0hYkGCKTMR4/hrQnzWcJBeIg8YTX2quPP6PEU1ovvuisQnnWXuwnoq+z9iI28on5UiGu/WcFd7Uf0p7qHKy9sOEDKy/61Dz44KzWHUAdeJ601ld/n84L35Wmu/aswhzafqPaSAq88T9R7fPY7Zeq84MZxYPfpxNb3/8Nz3HzE5Ey+/mPnPu69Y3IsL39xDMiPLVPCRi4Xt7+Od96tL8ogD3av1Tx4v3DgfLX8j9F2tPJwnAHzgf7/0N10YMVwtvw/uv2U+fn4P2V1D/geL+/vQj4kROUeG6/93iB+zdpSUdmCp7OxPa9PVWVrQMNIXLsf7KWsFT2n0XtuZ7q6NN8ScQitjeXFrdtCioqIsbrJTho/kb5wOihyDkZz3/X9WL1bbUX/3kraXmq+lw3/Crzowyxq8eyrB6JRndZfeIcy6k+kctohytyfS80fwaQwrVVMsrLLIePi44xbxBRcxG+DbuSwDowMpllq2fhYq7h6jR2sbXqOdyeeCtgS+0VsBUPFLCVJwSwF0AUsJVY5KBiL+IooDGPrsqZMhctLYCQlMlZmqP2ZatRishfEuftTUtXy4ZoNT3ILjfR5amSK4Jg27kZOQopY+fIRPUpE8nNcpVO+q0MkLKLGjkcdt3TNfHCDS1DqhlLXocrQ6oFa3zHUKmrctHuKqeRL3AdugE0x+Dz0DHVvOtgFji1MNgAVEi8DoxkWifqPvPQdWhMvKZLhFviY7WoO65ltNaZVFFf1yw2J32iFTVMhtdZopyScf30KveWbG9i+j9d2O2sJ8yug+5cIj/Hg3sZlOEaQM5OeubTe18JkjGFu6uBviG4etE+0R2A0tDpzjd7xdoRG/UQ3bHxQgxVZju77wcFApyqT3fZygDkK6dLydZ9F9py7vJh52pk20H9+wDJ1SGxJzMv4Gt40PoOJXwGQG88HxT9YPLtglznGu+VS7vCJYyKRUWbPph1Z6Uoq/iKvhDdwk3O1g9XCnILGY+FGBcVByuR3R19L60FrHUV4GQF0I7r2Z1tMFU0zyiDHqz+mbOuDkABog29ZjoS6sEWcLT8N2EJQqvqyAaX5DR3x3lwobfFcSlBMABd921RL7IagA5FLBeRum3bIXS3dt0RnQoYVGDcVLYdFWNWdcf3o/IXsl4CXZSCAEmTviUTwDpYbi7CxlIuAGB0QZLv5droel3XUpDBl3GLN77BleHe+CbqUSVpdjImpvfFCaybO4iLesptD/ZL2cXpdcuA7vS4uouV+9IXknL83U2Jw12kTHgHIA13EzFjMWJqWhm+u0/ihNN1Y4XuUiZ3WbOgta6TIOkSE7noWJMBKMbFrpR9tt0zBHrdruE6xKIFxnPzukNyV1w639N2+2FzQ2xqPaW1px51d2dzIEGpGk0mV3kXt2isSCc9cFvcgC6g/XHn9I87p9r+/+rO6aHMc1F27L9cgFlUFC1adMZ1x5OuO545wZ3PohQ1uhueFTPUeO6nu/ZECZMKSbtIo+zLQhmtb9YHRN6VqCfttf8HinPFXYmayHOc6LRqr/FVBunP4PV1L6ysYj+wn+5efSisXup+WRSH5FGXZHK+Nd0lhYnK/CqxcyoHPlrjYmrndxxi1CnthR98SadQeafi0QVhA/iLFpRYR3dw3riKO2atXDOuig/vuMi95FcG6K2GwutQncCb2XNVDX2NbxQbQLr0zlWfZYASnCqnQz5lrFzRGJtWqNSKmnN0Z8Pr1Sd+k0le6tm9K+WqVitX1a0xyOHZ2H1Bj7Y66lnRaaOl4oFHdKee6wWxzatP7sRw82yaLFzh6mHbD8Lfy4G64mIT1y8YuSWiGYu7c8B3cMwJiI6SG3u+rDTQ2DC+qJc1uuXCjCi7KwSZ38ZKWpiQMw86ac3T7t1B/4XNy4ZZU9TMZX/+9S0DkBYUs57nZS7cXevgAHRGH7PShAXgL6hpRGbXWWvL94Dux7CJcX4MPOjpAJsY51caF648uCGDpvG/PKu5Adgf7694/vL66dPbI6D3/19f/bR/ensxNP/4bw==);lineShape=1;" vertex="1" parent="XJAstwMBB5YRr8NqRWwe-71">
          <mxGeometry x="1498.976477732681" y="568.3506555507618" width="298.8450126272505" height="416.78058957764506" as="geometry" />
        </mxCell>
        <mxCell id="XJAstwMBB5YRr8NqRWwe-28" value="" style="shape=stencil(rVnbbtswDP2avBKSqOtzt/1HgaZrsK4p2u7296MRyI6O45MM2JvjHNoSeUgeyju9e3+6f93vgnv/eDt+2/86PHw87fTTLoTDy9P+7fBhVzv9vNO7x+Pb/uvb8cfLw+n36/2EnK6+H39OT/h9snPi62QU3J/TjVYkn+58OeGfDy9n+CDTX+d4lZS38SqljHgn2W/jk2Qd8LX0N17EF2luxKsoeb53ksYFlSq1EAPb37iiEsU1YpBxC7l1J182aOijHCWSPVgQ2hiE1KQygyzejwZJlOwhNAlg4EVZmAMaxCKFxE2T+DFwMYomYmCRHt0afX/nRYPopKTBQKsEsoc4M3k2SBIdMcjdibNBkEQiHc2tcTAwR1dikIL4cUlGeK/EwNw6bjoYl8imU8XAGbsceUM2IoyBM/5WEmkjM3jJF8rWXCSCQe5kuVwDLKfHfPBRMisaKnH0kmU5I1/JEsAgiJLATUVlZKv3kuK2QTUyg1tn/l420FUcHPVSXVGjSWL4jPlTe9m5jK/I1UqZVxvyotBcsMYREc/SuZnDR2ZnWpFa6Mm+4FmqWeML43pSf+FlfET/RGmkBhseCx5/fsZMNpaTxmaN3o1tJ0gmfGhN3Ph815NiCw9SwdHCYvgYEc/i1SQjPpAMa3OZWvCZr7+Nz+f9xjtbL2SkVEbQ1uO/BICViAmPAfYswCtdoZIZ4VpvXgvhHHeQFsAHTqBVAtAEs3oD/Vgq84/VXAd4VqMNXxz4v3B8hmbcZdUmHvpYZ/iN63e9iWz6JwGeabTJ/4h3bL+r+M4Ev5E/1pA4n0sGfOT8BP77XpFuzC/fK8atCWxNnlcgqBAmzHlCQgXSawmfQcH2iP8ffMEAWMdjAcjSKuBpR01Sx/UUOtcYHsaU0h+w1SEVhkU6aFnHjhXw1P8BB4LGE8Dj5GctjSXwPAoveFaATDGhMOYtzyRZUDRgLcA031q2shw2UQlN3gwYJybZOhYVz5NsEsYrA5ZlJr2xTGjn+Za4V9hDpErIxocE00CihyA2oAAxfKal3UYgYIavXe5vDVlwSnGlWNsYByPQNPcRAxsUQa5faffTEQO8IfOjn4DUmI4hSKRtnIY92PzNJGPM6FaNUtgZgvaEnA1Kd/TWoQOUSLvDRIjWruFmA36ApSu32q4iOzgJfQyYDa6cFq3KTFJaxyyuMDmlQpWO9SWoGkZHJu0WpTIbZLokyy/QjsXT3mY1ooJBpurOKikcwlWTa6y29ml1xqfevi5nKI5btdFiH5FI1r6Y3AkoFqz9svRc1bBJzpD8d723nuEb2a/D8e9Mj20YQCIsgm8DH9Z4umF0aKN9xPVj4TM86wqGXzmI1XiHhFgm8i38mJXTwMPxHvFMrrk+HZ7h2TznUN01fuDzr58mruPtYvkO8nh4fj59Rjn/H7+b2K3TNxf9/Bc=);lineShape=1;" vertex="1" parent="XJAstwMBB5YRr8NqRWwe-71">
          <mxGeometry x="1757.9785463255148" y="612.42895079205" width="350.1684721747332" height="111.95597545770322" as="geometry" />
        </mxCell>
        <mxCell id="XJAstwMBB5YRr8NqRWwe-29" value="" style="shape=stencil(rVjZbhsxDPwavxLUSek5bf8jQJzGaBoHTnr9fbk15JrU7hgF+uZsOCuRM7x2l+7enu5f97vIb++n45f9j8PD+9MufdjFeHh52p8O7/prlz7u0t3j8bT/fDp+e3k4//16v1guv74evy9v+HnGMZW2gCL/Oj/IlXr68+TT2f758HJln6iytc/EYdu+UC/WPlCO2/aNmrVPQrVu24dI2QEidCBUkmQAUSgBQNQLiwUESuBKsVIOBhAKVQExDVSsD0FpyQBQqVnWKgVAQo4UnM+UgctZKNj383BpneRA3dszA/vqSQvjwFX7yiTRkkwFvL9mz7GSXoB98xQrAQ0QIGFo7IpiAZqQQsF6vMgKuCxtAggVwFljn2kpjaitA6ZUTp068KFV4qlWRBCl1obKBqBEKuBKnalanksj6QAQqWZLdKaOTsiUqwEIjyfrAHXa+qBURkBc7z6ZNQwRiE8BYq/UOqwvCui2vvQL95uAbgERynsFkG8C3JU04zDAOd0brMJLWB2gY+I0iFZLgXFVUgSLP6Ih9bURlCtAQHdqVK02ulADnUEBJfq43jjB6VuZi6B0L4BJGxFlkF7JAXBzUIDXd8Nybb6bKADNGBr1aHO06dCAczTPJ2BpCE8+YLk28VFK+EpdPA8BiO9KzVdUoy66HOHUV8dcsOmEU5+M8WwLUC0RS0LgMpDZA2DKdd8Wb2Z1m0pTH93+PwGKT6FWcPFLnmtt3hH5cJHCpQllOPCp2KJlrgoJACz6t0law5jR1gHFj1ilwEKj40a0Tuc2uszWQON6u46xaBgQ8Tmnc3IFPmgQmw1rYrhs6Njn5lDdbxgUSx0sk9WSTsYBaEnHl+p2Bzza1ylKuhGhDCrzdsJjEFwHxKnO3FoeouuK1JB99NU7BFhldCPkab9Co7HuV656h0u13drg3FasPAcQIx3mq00fVVIDwgjVLxDLTgecVlbd6KBxQzuiDjPOXkatXReSXxF1qUtoafVdveTB46o9jw3sYi+jbG7YuzFD7dHOx9OuIbCmaoV0768j9Tbsgy0uBW987JcljQ+qwDwKycU+wV1p6v6ap2gZm9/PMAfYD8NZZyBoH6wetLwLjr9bJvFsweOz0ZU9Wqv+9cPWbXv98fcr2uPh+fn8Ee76//6rmz46f7FLH38D);lineShape=1;" vertex="1" parent="XJAstwMBB5YRr8NqRWwe-71">
          <mxGeometry x="1792.978125132794" y="874.0944981005068" width="213.43125072557163" height="26.588501706123303" as="geometry" />
        </mxCell>
        <mxCell id="XJAstwMBB5YRr8NqRWwe-31" value="" style="shape=stencil(lVhJchsxDHyNriiAO8+O8w9XWY5VcSyX7Gy/DyYq0iKoaUm30ajJwdJYN/7u/fnhbbtx/P5x2H/f/t49fjxv/JeNc7vX5+1h96FPG3+/8XdP+8P222H/8/Xx+PvtYUEuTz/2v5Yb/hzP1UohLqcc/z2+cST1/4uvR/zL7vUUn6iyxUeAD1SLxXuAd5TF4gXgmTjcIH85I78H9xdP3t4fgL5Z7ZkMPgF5cqQ42scTZ4AXis7gE6/jUyZXB3xoL87jHdVR30jOreNjoTjen8gngNfPj/dnygAfquVPpQjsHyKVPOBFKAMDBaEyBoAEEuABX4hHD0gmBir4QMFQmiHnvBCbmPFUgA5ORTKkzhQKOBCbip1F0nh+/oCbaKq8QF9gcn48UEmAlaSQjF8ISkXAPEkUxi8EfQN0UL/W0dNKrgQ8LRpao0hRsxNQWlzjZj8QsQ5CYfRDrOSQSMqckXzJQ7bWlm07PlMEVMpURpWz5lOgQaI0cjsnKij+yY8KF6EEnKbpYmS2JnCHgo1kTC9aIBApXDN3x3uqwJ5TuVkKKKhnbCNT8cieih/tWQsMfW7V4gQfQW5hG/iKR/bsmeoEL1CeMN3P0D7JT3goT57uR/WeqVSLD9A+dbof1W/Fm/tr8+CV99cW0VfKX1vErdmnWHy5yf5acKH9jX+FO8WvJJB+AApkCVqby68MAG0QcEBO8ribArhQhQ6wCaLABo1tglY8qsTcwvU0ACA+TAHMEB/nAIb4PMmP5THt1qIvtH+d7BlxQN6E1wps/Othgp4KRqnNYisFyY/2KVoCQQ8RWvrueLUwaHhj+7cX4NjanJUCz6M8OlE4NAC1Nq83EKm1gisNRzB410r4WkeTTM9UYEAu/fwYATpTZORh1xJOP6BDFGpFg+1dQ4E+E3XCSDodQxgdyHaK0zEEtWVSbZ/lc2tOz9NUbGHyHvJIiZdGkdSV8EBvJPuBCEuN5+kLjhg4Tgcnk6t1SEDD36dN+gGdUtC02InQDziYjdSvRgdcXnXCMPVYRcTjsRn9YsuXa+O3WTcE2O5qMBYzlpG/sD6w6xiPsotYeQTqu6w/vMGj7LusV0b7cwu91fWNxaPBWKcLM/8w5MOyfrL3C8qO03qLYaKY12cM2+N5Pcewes/rP9zNLc1VtXhknzrrC9d/Gk7WnmgeXppJe3+4gM8Gn0H1O+luPw+g/vjMAYHlbJZIIENnjQVqMFtUYP86e8xhxk2MuLAQvnXhfBGvD5/b7afdy8txOX76v92G66vjJt3f/wM=);lineShape=1;" vertex="1" parent="XJAstwMBB5YRr8NqRWwe-71">
          <mxGeometry x="1248.193034373886" y="976.5602361998631" width="257.6059176942749" height="129.5195953943907" as="geometry" />
        </mxCell>
        <mxCell id="XJAstwMBB5YRr8NqRWwe-32" value="" style="shape=stencil(lVnbchs3DP0avWJIArw9O+l/eCZOralrZxynbf4+YDWUF+DukfNmyzgm7jiATnz3/fH+28Mphe9vry9/Pfx7/vL2eOJPp5TOz48Pr+c3/enEn0989/Xl9eHP15cfz18uv3+7H5Ljp79f/hn/4b8LrlAKA5TCz8sHgUT+/+CPi/jT+dmIRyueKAQkHtiIZwrtWDxTr0a8UslQXIx4DNQ7lI9WXtUpSL51K9+pAn3UOVafJNSAuZVCMvIcKAD92wzNVT5TjMfy6g7OFtCpMwDwjOYEiFBOAKDpY10qjSrIH/VgsSHOiQrIoMQkNghZ3QxsUK+Ke6ETgyhzpFQMoCRi8AILVWt0yTPy+4BGwQHq/Be7AAlUbd3UAAtHki+FmqZV+wDVuFmAzE/2AXUBaDmBwGkiNJt8VSMDcikHSs4GzSXULSJVG7japxv2AZreNjVapIAA4pOvJZh8WX1ijW5MEbUk9YmtuCbEIDU0mb0NmQQASvQtuxUS1MV4KnAFVDwT8mJDm5/sAyqxc2ufsd9vlIGKTb4eoA2VqVmVulY5iEMtPnA9zcm434s1W22JdobNWBOhWqO7VlwFgDpz8wrIcDz0pYAUgNr90NjmUi+z8ewDOjU7sXqbM/UI0F3gOqwH/XOOHiDAS6qAZA9AvVVN7MsLDamkXl9e6KAv9aXNDAB6IfreOgAol9RLywuImbwX5AaABrsmn4+0lih6QQFOJU0NMIFUpSweUFHF9TkNNgBBcYhLajRiYLQGjhcb0BTV1ODFhoRU0ilaFpVQajQqywsZvaAEaynRhihcCJ70jRoFgRi5Jh7ASCfVoHhAQX1m4XCjRhEgU+kegLJPQ+0Y1sYPR9nk+3efM+OoHYfF6oaqunmdhptQRVTP+kYgwBwdgKWVQQBTcTZU3Jni5KkbAEom5XjJubXgSa3M1dmQoQ01LfktkN8XrTk3IbQxID5TPL9X8gA5mSxeinMvOiJxPtK66iIy3f0uqu2zIF5Z55K0IXFok1OqmxeaCOk6LzSx4Be0f9t6UKqL2oZ032eUTGe8o7hm2a4j4GgLciNFFwKUrVL8SGkR71nqVmf0jdVP/FVASwrxGWHPvnUxyyAOEv3grde7zv6+u0zqipcarpOMbNZXFAfOs4I3C3JCLyQfaV1CGujeqU+qsFnyE1BpXItspEuCzHWczqyXtGgFBC62BVAgJ4vid5RxbEEvBL9Rjy0eRHqJ27gXoWT1BcqYSqe5v2wvXui8NMt9c1FDS1mgbEthaAgcFPxqfOMiGPxwu3FxDP4UdeOiqfKubuDBNPh9D59jr9fIjx17Fx6JT8nLfw9wKi+3zOsCfiDuWlCYtOEgcRyRx013oRQBNsRENXlx4Ej27BeLy3rCR8osNYhNzfNo9zFHahf0jkRhKrM8P5YEv/1txQ1x/eH9i5Gv56eny/cq27/7L1L0o8uXMPz5Fw==);lineShape=1;" vertex="1" parent="XJAstwMBB5YRr8NqRWwe-71">
          <mxGeometry x="1247.9776614384086" y="1103.2377751240385" width="45.68854073175165" height="320.1164127727418" as="geometry" />
        </mxCell>
        <mxCell id="XJAstwMBB5YRr8NqRWwe-33" value="" style="shape=stencil(lVjLbhsxDPwaXwXqLZ3T9D8CxGmMpnHgpK+/72wdbVaUMXJu9prjFcUhOeTO37w+3r3sd05e307H7/vfh/u3x53/snPu8Py4Px3e8Gnnb3f+5uF42n87HX8+35+/v9wtlsunH8dfyz/8OeNsNOIXlJO/5ydiov3/4OvZ/unwvLUPJtfO3pkSqX3KnT0eBGofXWefTOb2obevxiZq70Nnb62pngJc7/ByZfwNLvaAYgJ3wfUuOBzJcYD0gGiCUIAtPaDM3mD7qHlnAndaA9Lslt7DtAKqSTwOChC8sdxpxdSQTGRviCYpQDW1EkDWXIreRHYk/J8CpPbkIsDh//rAJTGepKfLOt2SN4kAvNVHSskUciTE1ffky2KEOB3wc3+k7DkAke7jkGML5WVANqWnRkbGEaejmNz7UIQ6HZ2JfU4X+EDKHohQe6dLoFyKsTFnBSRaKGPWdalk/oba0mUF4AkpAqCa68lXheY0qKYKWbXGM0DSka7OeJKiCSe2PQDvJLeU11q9AtAwCgFUnXEVtZVca4mtbK2A1MrCRUDN7U5WAO8PtbbivgFkVshkzcgVUSldl5+rBrDIwcecNIDRdYnTAGDCoaBDRQ14z6nLgLFRC69MiHXOwytIRoBNZTgTUyfZXXCCsSkjYYYjWQ7QSVpMIdeEI6kuB0BkgNjYuQGwHoRrVQIIAFZoUEuz1wAhBAc3xowQxj43RBpHYgmBHB5uiSYEbn2IA9MzH2zeAJgWACAOGeTYkaAFigZE5nRo+mhLb0I+9IMw5ijxoQwJNMvRAn4PZ6rEiZyHio9Cw+gK9o3XxFqE18JyAkh2uNdMlShUoRqCwEdWNqId6BqNI0kNyRQV+wJNuRD1CIGKTgF+6BCOqofgtHQFvVglWwB9YYKgcUxYOj03oZCwthisSb0PiyhjShTCsg8cGM8KE4Ye3wuawqcan5t82UjXygT+MIBDHLMhBROBEg9L2yP0xoSu5TeowQBeK9FlhGCDVmlddjOkTIb20B9pGYPYG0SLsmXQYjmtJ4hlkmPMaDeyHRWJB06vNTCzCNvLtK3NdtglxBPdribT9JqKV47roz3fB4jm0GThILqRTDYasO9L8GRlIq1nXLmTEd1EJksf0YyebJVEq7bJ2kra1H/dWkw0ffjWbcgWvtSTNqNdtzMcphe+khQ9dUprhtcxTWintKZUZW6Judfal1e2oGkstKkmHdWJeNJFhJujCKoez08DCmZ9N7SMo8SET9zluFSchCropOVM+PTue2qPDx+L9ofD09N5T7/9XS/m8ei81Pe3/wA=);lineShape=1;" vertex="1" parent="XJAstwMBB5YRr8NqRWwe-71">
          <mxGeometry x="1504.6425717397988" y="979.9026982215398" width="18.857951576692358" height="275.3994084976076" as="geometry" />
        </mxCell>
        <mxCell id="XJAstwMBB5YRr8NqRWwe-42" value="&lt;span style=&quot;font-size: 72px;&quot;&gt;&lt;font data-font-src=&quot;https://fonts.googleapis.com/css?family=Ma+Shan+Zheng&quot; face=&quot;Ma Shan Zheng&quot;&gt;昆仑&lt;/font&gt;&lt;/span&gt;" style="text;strokeColor=none;align=center;fillColor=none;html=1;verticalAlign=middle;whiteSpace=wrap;rounded=0;" vertex="1" parent="XJAstwMBB5YRr8NqRWwe-71">
          <mxGeometry x="360.94318555332757" y="1293.34298634781" width="120" height="250" as="geometry" />
        </mxCell>
        <mxCell id="XJAstwMBB5YRr8NqRWwe-45" value="&lt;span style=&quot;font-size: 72px;&quot;&gt;&lt;font data-font-src=&quot;https://fonts.googleapis.com/css?family=Ma+Shan+Zheng&quot; face=&quot;Ma Shan Zheng&quot;&gt;招摇&lt;/font&gt;&lt;/span&gt;" style="text;strokeColor=none;align=center;fillColor=none;html=1;verticalAlign=middle;whiteSpace=wrap;rounded=0;" vertex="1" parent="XJAstwMBB5YRr8NqRWwe-71">
          <mxGeometry x="1360.9431855533276" y="1488.34298634781" width="230" height="213.27" as="geometry" />
        </mxCell>
        <mxCell id="XJAstwMBB5YRr8NqRWwe-46" value="&lt;span style=&quot;font-size: 72px;&quot;&gt;&lt;font data-font-src=&quot;https://fonts.googleapis.com/css?family=Ma+Shan+Zheng&quot; face=&quot;Ma Shan Zheng&quot;&gt;不周山&lt;/font&gt;&lt;/span&gt;" style="text;strokeColor=none;align=center;fillColor=none;html=1;verticalAlign=middle;whiteSpace=wrap;rounded=0;rotation=-60;" vertex="1" parent="XJAstwMBB5YRr8NqRWwe-71">
          <mxGeometry x="720.9431855533276" y="243.34298634780998" width="230" height="213.27" as="geometry" />
        </mxCell>
        <mxCell id="XJAstwMBB5YRr8NqRWwe-48" value="&lt;span style=&quot;font-size: 72px;&quot;&gt;&lt;font data-font-src=&quot;https://fonts.googleapis.com/css?family=Ma+Shan+Zheng&quot; face=&quot;Ma Shan Zheng&quot;&gt;雍&lt;/font&gt;&lt;/span&gt;" style="text;strokeColor=none;align=center;fillColor=none;html=1;verticalAlign=middle;whiteSpace=wrap;rounded=0;rotation=5;" vertex="1" parent="XJAstwMBB5YRr8NqRWwe-71">
          <mxGeometry x="1304.8431855533277" y="431.19298634781" width="144.3" height="185.91" as="geometry" />
        </mxCell>
        <mxCell id="XJAstwMBB5YRr8NqRWwe-51" value="&lt;font face=&quot;Ma Shan Zheng&quot;&gt;&lt;span style=&quot;font-size: 72px;&quot;&gt;冀&lt;/span&gt;&lt;/font&gt;" style="text;strokeColor=none;align=center;fillColor=none;html=1;verticalAlign=middle;whiteSpace=wrap;rounded=0;rotation=5;" vertex="1" parent="XJAstwMBB5YRr8NqRWwe-71">
          <mxGeometry x="1700.9431855533276" y="333.34298634781" width="144.3" height="185.91" as="geometry" />
        </mxCell>
        <mxCell id="XJAstwMBB5YRr8NqRWwe-52" value="&lt;font face=&quot;Ma Shan Zheng&quot;&gt;&lt;span style=&quot;font-size: 72px;&quot;&gt;梁&lt;/span&gt;&lt;/font&gt;" style="text;strokeColor=none;align=center;fillColor=none;html=1;verticalAlign=middle;whiteSpace=wrap;rounded=0;rotation=5;" vertex="1" parent="XJAstwMBB5YRr8NqRWwe-71">
          <mxGeometry x="990.9431855533276" y="1017.9429863478099" width="144.3" height="185.91" as="geometry" />
        </mxCell>
        <mxCell id="XJAstwMBB5YRr8NqRWwe-53" value="&lt;font face=&quot;Ma Shan Zheng&quot;&gt;&lt;span style=&quot;font-size: 72px;&quot;&gt;豫&lt;/span&gt;&lt;/font&gt;" style="text;strokeColor=none;align=center;fillColor=none;html=1;verticalAlign=middle;whiteSpace=wrap;rounded=0;rotation=5;" vertex="1" parent="XJAstwMBB5YRr8NqRWwe-71">
          <mxGeometry x="1600.9431855533276" y="663.34298634781" width="144.3" height="185.91" as="geometry" />
        </mxCell>
        <mxCell id="XJAstwMBB5YRr8NqRWwe-54" value="&lt;font face=&quot;Ma Shan Zheng&quot;&gt;&lt;span style=&quot;font-size: 72px;&quot;&gt;青&lt;/span&gt;&lt;/font&gt;" style="text;strokeColor=none;align=center;fillColor=none;html=1;verticalAlign=middle;whiteSpace=wrap;rounded=0;rotation=5;" vertex="1" parent="XJAstwMBB5YRr8NqRWwe-71">
          <mxGeometry x="1827.5431855533275" y="465.34298634781" width="144.3" height="185.91" as="geometry" />
        </mxCell>
        <mxCell id="XJAstwMBB5YRr8NqRWwe-55" value="&lt;font face=&quot;Ma Shan Zheng&quot;&gt;&lt;span style=&quot;font-size: 72px;&quot;&gt;徐&lt;/span&gt;&lt;/font&gt;" style="text;strokeColor=none;align=center;fillColor=none;html=1;verticalAlign=middle;whiteSpace=wrap;rounded=0;rotation=5;" vertex="1" parent="XJAstwMBB5YRr8NqRWwe-71">
          <mxGeometry x="1840.9431855533276" y="668.34298634781" width="144.3" height="185.91" as="geometry" />
        </mxCell>
        <mxCell id="XJAstwMBB5YRr8NqRWwe-56" value="&lt;font face=&quot;Ma Shan Zheng&quot;&gt;&lt;span style=&quot;font-size: 72px;&quot;&gt;杨&lt;/span&gt;&lt;/font&gt;" style="text;strokeColor=none;align=center;fillColor=none;html=1;verticalAlign=middle;whiteSpace=wrap;rounded=0;rotation=5;" vertex="1" parent="XJAstwMBB5YRr8NqRWwe-71">
          <mxGeometry x="1661.3231855533277" y="976.56298634781" width="144.3" height="185.91" as="geometry" />
        </mxCell>
        <mxCell id="XJAstwMBB5YRr8NqRWwe-57" value="&lt;font face=&quot;Ma Shan Zheng&quot;&gt;&lt;span style=&quot;font-size: 72px;&quot;&gt;荆州&lt;/span&gt;&lt;/font&gt;" style="text;strokeColor=none;align=center;fillColor=none;html=1;verticalAlign=middle;whiteSpace=wrap;rounded=0;rotation=5;" vertex="1" parent="XJAstwMBB5YRr8NqRWwe-71">
          <mxGeometry x="1304.8431855533277" y="1053.34298634781" width="144.3" height="185.91" as="geometry" />
        </mxCell>
        <mxCell id="XJAstwMBB5YRr8NqRWwe-58" value="" style="shape=stencil(lZzZchzHEUW/Bq8dtS/PsvwfihBlMkyTCoq2pb93lhE1mLnZc5p4I4FO1JbLzZtZ9ZJ/+uPjL79/eEnhj+/fvv7zw38//fr940v+20tKn758/PDt03f710v++SX/9NvXbx/+8e3rv7/8+vr/339ZX65//evrf9Zf+PNVrsYjxiWVwl+vP0nxSO3/P/n7q8DnT1/uBcKR+nsEyjxacAIDBMaRiwrkCAL9aG5KOaFAcIvOGQTa/nv3AgUE6tHyuwTKMb1ARYH0PoF8lPkugXT0+q41xGO2dwpEvwY6OFM+PyVQjTz3Eu+Vb4LAOIq3hw4C/Sh+BNjW3I4ynAAoX65H9VOCXcrlqN5EaZfy0ZzFocCZaqBAPMb7phSP4L0GLToc0Zko+aU0j+TdDJx0Gie6VOGkk6mGU+8RQKA5E03bQs4FTDWKClSwuFScM85HoF0y1Zgq0MCAbAJDdqnwttoSZUr1CLSG6La1Hp12KRxDBGyjaUph+4ibQMeQFefRRb3HkeCko1e+iU4gjqM9+lZT+AwHZwLhcUpmUpXWYNr6OCWz8gkmGps6AXM8FEVNIDx6PnNtnaZUjyKL7nvfzgXKMWQE2zcwURMQd28hJtCiyxEedcmCWKGTzkd/9EvlZiHPBMrjwRU2IBPIMqV6TB5BIJwBIlSNvD3pTWDySecdlbfAwpl0cCbwaHHVlI+nJFG0lqODXzKBKgLtqCwgnq9aAOAp9UdH1gJGoOjCbjNfeKEajxbXyrbyZwJRRjAbhCgak2pr66xLNuPHXWrzmGQP5oUeR+hxG+25QDj64xp6RgOax3hU1l73Xzj9fijy7n3jp9PvbUNkPhP1oh3zccGDbaHu/bt9n/aKzkHx9tK378uGEedI6ZiPJzZYJ7KC9NFxvekosl7zwaRzx5D5T0QYN5S2v58Bzyvofs6I+xk1+M+MICzuGHb3/YD1pu12bt+Xnb8+2X8Js7Oi46qaq862Te6JPgsUmR0j2lScMMdGcM8sflYVuAjKzY0w6QS64oQlQKg2aEAzgU5QPmvYNwGKgKmq17JdpUWv7ELU2vAVZUhhB8h7vSA7dgSAKR4BbUNn4ilmQsZgJc+y6LCdwbN8XtJC8xUZdKk46LKcFwlUDfsjY4ZkUGg8rmEEjIA1aKbaByJzQzZBAkjd6cO5QHYRKmOyUKtClx5QvWvfu36L4gNP2qBQfzSgVhGvGRQKghNuwPhcICqEtJ9UOGnDTgLl60TmxiYgeWTtiP0NbClILXsbzgWqhhI7ewrNhs7io3qbdkXa1q4p1dJfEhg73b9LFsgeDM5J+F82SOEk6MGZlZMzNvwnXKn5EbKH7hBJbkeDg+tFbXpRZKBLval6Wy6MMXQo6DT3TO7eMGBwjAG5GXNbyj71rY7nAp6CNhOFbR3O8yUGJobTlLPOm6o8Rw7RjXAz2nOBvAm2H2SULQQqsx+Q77UgKzT6GzVzLtA3sXMTGFcCwopHJpMMWVSZUuNdGopwI9v0nBqBVu7KUxIGzfI+wugmIIjMUCAFxbVLArDQj00XsRg4LAwsqfPO1p8pktSUKhJ6C8M/uvrM87fcX6oAmDQY8mpiCdvzPzM1yTLiZn7Pvw9aZODCitm+ZBkRkyRzLlPnQ/M3WCc1jLiJhmfeTlUakedwwT8ifTRuzP3b/hO4MNCoddVjwN/vN27pTX/I91qEEj64YC3CIKag1LoJtGcxVrBO4+/jXt4Nch6Vgn7Q/WeSwGBIkCSS4WPfydPtfAPWXgx6eY81CA1WxTmLPCM0WNRlLQIQzmwBVBmh7F17BoFFKSwQED/YksJHEyA30W6l+7vYRH7CcL9O6caHnWcWUx1dvLmOZ6mIRA4LyKQaJiCVQgv5BO4sLdBSO9deatu/voMthJktYasikLa+nws4RGsC5L9MQCvnGVk8SzqLOLyyXdqztLYlFaAqW7153Hu8SSP4mnDZUOlZaq4HV/bZnyf/86TaSbUXE9B2gbT9yLnAOOmRICBiAgrjme5cAuJmJlZ3istdzIDIHmzRUuI1gUgnHbRusUyUtNV1JdkaBuuSWJwJTCLZHT6ybSUAs7S1qQAhjOpbHgKC7OpC6MI8vGita3NDggmoenPtxQS0V4UbEkxA69rpqp1suhEIWJlAz25KPIIUnGzRxCabgDCxCzvTSft2gYgp4RpBHFnAktYScNpKcGwtuqoAEUlrWwVvT2QLljN2UfTCRBU6cKWwukqhrYF6VZaJuuSf2smq5yNucOXHTZQo9BrVt751rzxdg+tKuvAaJ9CB16C9jInZZE9VJSQw3i1QHOZLAVHlYkUloExknpYBuRGIia3hpMPtKmS5RWOZzmHvlBi3Ji08rxHIa7iGhKUadNLlpLcXAVZx3jtg0mRAVzDfcgIMpTUdmIyMuyMyLsDJcGlZZ68xnefjTpIWlK9e/BzlcWFzQfd5HGVZUdmqlSlSLpo0ZK3GJhoha91gNaPQCNnRnpfpsTJEEePDKpaIanChoXVNaRgjtqG+eGDjQHdeqWPjySp8SImLOR/XzVMR2PeiMb0wJ9NcByDinj6094cdWJ/aCMBAbHitRi5/uEa4wJxe2Qjn7XtqfFicpP59auQZQ/PVgLXqxalO/Z54/6C+MSBHOl2nTeAyQdL9idjosdoJBOGhfc2qITOja/e1GqbDZlf95Br1HOrYO3PmQ1ORyTUCdxnhgpM0AWktMh+KfZfBNSOsyg7pxFRQYaGGlHq66zwW/cgqV7FJFnFZ/1Lac/CUuvZ4LIwAjtQXg9KtPeGZpvoMj0DFagFz0AurhMlh5owoxIw/Cu4vXPEYDm9y+BjVERgN2YKRHQM48KSHY21W1Y8jiFh0jlyW6K5VIKMF9ao8aa5IYHTXV5w75i49KbeVJx5cd2iwRIzjbbraEJd3DegIECkNc0hDUtKhV7g32rCaQKnKmXaryjFaNkPBc8FHGaGi8nmAWrlkZZhZCg11ImvTXLxd/d1w0ob7RZdWzYiyI3eNxDa6ER/RXd/WZAKjqQEZaiXcX4vatFkI9s8lLbx17lddbPLjtvaJpKTppuAGczx0YWjdn3ickkFFvMjoPJ9hRXJkZsHSRWLgj2JcdrnIvLjI2FyLa8YIZI5R0UzBdCo7xmNeXKtyjS2zY8KTnBOYt2rIuUDWLsOFuegumaNu58Tes+iue95hrnMJd+VuYS7qb49u1RPVdZ6sIVFAUZi7Oo7IQt33HefjOtVML4gZTtqzNRmnO+Z5MjsStLXiou/ZYeiZkTYL2noy+UKvq2CY7RMzEhWSGJSjErojqVfzDeyPay0a3BuVlWEzpEhRqrhWj7wLV0/0TS+QJLwr3NzfZ27XXcvtA/ff5SMWoKg04lqjesVkwbJAcaSr+4ZuywXXEM7dTtEVCRq3PMSkdN+CfJR5Jnc17eJuZ1IrWICMbl4m7XJsie+dJKWb1n08npICvIHZhQlIAXbR1eTa3fW61cjBAoLMFwwmXUpqnDXyTeSk1lA4ZEbXZ1861l6WgNCQl6ohaKoUJIZiUo9X0qYyzwWyY5ICn4O7qpkn9uRa1Bcu2NJCDGpF7cEQHLFzseozKZap4i656zwG+dAJNLfohDTJInZk0YHtobsOhomUXvTPcwy+YzuUwzT3T+0Cq5DoWA+6lPtGut7xKtTBkNylpxUh6UKlqxOsO4F0vS253q2MB2e/Vn4r8aMNRbOLFPlZiHoiQN7bdl0b1vhGhb/HmNjdL81x7QKE5E03fdWZ+NvsLj1FvtrqXz1ZApS0uSajKwH3ckucuK3+bZgrAff6zJWAe9/mag3uBZ0lAI7Mv9GzBOhupaegJ5Z4/TtDb37kHBO7l4yWAL3G5N5KWgJEYrjXmC7aXP17TxdNFf5FqSsB92bVEqDmR/cq1tUI7tLTlYB72etKwL0ddrWt7nWyq4Nz758tAWKffEmGlc+/4Xah3qf9mBcCyXsN7u3N3mvwCN4JkDNejVK+w+2iW9J13l40PwrvvqiH9wpgv83ZlLBnyC367TmEH9zWRbfwLvluyYuuVf/uFnZLvvuJwmsB+8fbi4i/ffr8+fVBxfvf6wuK9qPX1xfzz/8D);lineShape=1;" vertex="1" parent="XJAstwMBB5YRr8NqRWwe-71">
          <mxGeometry x="1160.9431855533276" y="1333.34298634781" width="796.61" height="517.99" as="geometry" />
        </mxCell>
        <mxCell id="XJAstwMBB5YRr8NqRWwe-61" value="&lt;span style=&quot;font-size: 72px;&quot;&gt;&lt;font data-font-src=&quot;https://fonts.googleapis.com/css?family=Ma+Shan+Zheng&quot; face=&quot;Ma Shan Zheng&quot;&gt;归墟&lt;/font&gt;&lt;/span&gt;" style="text;strokeColor=none;align=center;fillColor=none;html=1;verticalAlign=middle;whiteSpace=wrap;rounded=0;" vertex="1" parent="XJAstwMBB5YRr8NqRWwe-71">
          <mxGeometry x="2310.9431855533276" y="962.88298634781" width="230" height="213.27" as="geometry" />
        </mxCell>
        <mxCell id="XJAstwMBB5YRr8NqRWwe-63" value="" style="shape=stencil(pZ3ZsiTHcUS/Bq9tlXvmMyX9B8w4JGCkMLABqOXvlSGol+ve9yTH9IYl43ZVVi4RHh4eP5Q//fbTj79++SFfv/3+7evfvvznz3/+/acfyr/8kPPPv/z05dvPv+9/+qH86w/lT3/5+u3LX799/ccvf/7j33/9MUbGP/371/+Iv/Bff9jlfqsrrPL133/8l3pL9X//w7/9Mf7vP//yOn7cStHxE8bPW58yPsP4ct0u/fs1wfh0q5eMbw3G59tMMr53GL8ft8r4AfNT2u3Svz8Gjv+///0ynuan35o9z4Lx+3vl7xk/b5d+r8N4m08aX69b6t/xvjXdl9fLePhee/zS9UDft+bb0OevNL7cP//L+of1Vh/L9z6+3BaNb7eUZfwoOH7p328Zxnd933IrsL/quNUm4xP9/XnLH/9+vi16/qnPvz8Izc+6tSXjG6yfdt3mkPEZnqel+/Q9x1/wPC3f0se/n26Tx08d3+E8aeXWs4yn87DVW1kyPsH509p9+d7HX/i99vjZZfyg5+k6n9et0fih83ndCs3PvP+55/gLzp+2blOf54K/39P9OnyOp/Xf863qeFpvfW/vS98Xzp9eb0vnp10wvt+393N8p+cfvh4G/f15n+7n+Enjl55vezx8r3HpebLXJ41Pt/Lx+fcHhPU29veaMj7T+L0fk4wv8H3H4/p52b+w3kbz/d5ofNf1z+fJMH8g4f0y5i0VGT9h/ezxcv/u8XA+j6X+4b7A4fnnpfsr3TfE+/H7c35cD/nuoL0fn9X/yXg+TDvP892BfT9+rx8bD/tlPtyRl/eF+2U29Zd4/mf3v99pPsf9un1Z/zR+6vmf8D6d+3zQ84T8vT2+6XlF/v8e3/XvVzhP9vipf7/C318Wv+zxsB7Wm/Otwv7a44s9P6zPPb7pfV1hPazL76PGzz/tfoH1vB7H/ct4mP89funfp3gqxuvzT1g/8Tx6X9P5E/Oj58/F30vuu4T+dqxPO88P+0X9Z7rv9n6U+yXj/O/x5eN5Vfg8nBrflXuA/tl5YvEL3S97/ND4jvyrPd7wDZzPcXc37+Mbn1fjli8ZT+fDHi/fq90X4Gfjr4/P02+Z5qerf9jvC+rT8R///uD7qN/Dg+f4Qutnj88yfn7X80z+vnv8lPHkr8Z8fjzPF8ZH0/zhdVo/WeIvDhhigQ41oBN0G8gNlvYRRFfk3mJdDShm2HtYMK9tsPhQEVAq5bvb9dmpJVHDNqBjOq55cTsKv4PFeduAAvO4uGWWKr5D3NxmMPgqUFer3TLfZeobN3Tm4vKTl+4YPaxk6MXA42Ulc78HLo1tMOSRJjsIWQHUtHiW8q1cakAQxsq6lsLH4V8QH+cAqqxy9wleDAg13gZyiwRMRV+6aJibM56r20COmQD+6EsXA8L2BqJpdYOKrk48UlcDwoLjpT/ePfvyzDytAt5sA4pu4kvL0ugIJ20DcdcioULvkO+L+cUAHdRkjzTwRtwGgghsA1zeSa+4fNjT1x3ifxhM/g6XgizboLFXnsxgHY57MVjsN6x7WPZigI7Y9hM+btHCkeC+FNfHWSocKuxfkGt3GxBWF+9gv7D4Fp0fX7pkRFf9jtsGBBf50igF84lxoWQ1wKWR1YHeBoQAxZ6Wl673w/PTg6yqAWHc6xGCPAw4aNgGck9vAzyMm2Y9tgHOUn/zSHi2dsU5tsEiAw/cOr/D1Mg5cpm0lmyLbgOK/dN13WOXh8W479rvsGh04D/c/4fBRP9+G0gA90yZfjZP4p6UhZD0NpCQZhsQBrwspxdZWfLJuu7qbYCz1NWZjjwuL/BsBogLVT036sMP/Cfdk21ASGpc7TJLBUO/cHVllirmcsJdl5fe5wYHBLKrtwFlSyNskl/oHK4v9VxrZ3x92i+MY3CZ1AAvraGIQJ2YcokAOavBont0aI4+sswMykiQvw1wloaiYu1CmkHAFAITHXDzfk+7vRjQTb0N5EppGT3XbVA+nkuNqQPbQJy4Vhlr6br4WmMwqqnXF+lpeqTHJfgw6Ay2NIUb20DnYTbN77QHo+ZTg6YGdFO/MVjsiFpKsV+nR5Kl0R9IxKcGHx+pJ8Z/msYo2+Dw4cQX6BnP1m1QzAAjiKZnay+YiZnG1NkGhDvMpvd0r6dfEOdkG0zaQFVDjs4IU7x0UgOE35s6J73fE8SfGcjpvQ369xkMjFFii3Y1OKwl8QT6RM81ZulSA/zSVZNcfXEkV3XHjet+2n5mIO7PYAdrG0heYxsc1pIkfkY+vYME+aPwhzNqxKicW6oacmwDBPttT4/GV1ZTOGcb4KnRFcgenQ/jbr/QMc7yBMQ4OFhDb6AxGXeYek+Pye6PcXrH4g+3FGbeBsQCiyyoGaCzfikqMHkDRV48q8EpsSy/kJD5ucMBcRInp122geyHyVybgMrlHTLj0llR422Aj5T1O8wjzCxg/OT87zYQ/sw2IGc9Aj/5hcpfuir+Mw8ws1FoZuMv3RTIjiuGvkNTkkjcemRQlYX1dK7/SSA73PdD2qWbAQN31zADBh+XGzCAOuylD4GfLo1+ilAuM8h87TZ7pEwvXd79Ah2VSWPRg8E+GEf7nkeK2+C7Xnp0xaUPa2mYJzAZGtyehSQJD0tjXOroPqPTtwbb/yo2rXQubR/SH4mc9e3WZlveaOCHQEcqV/ejkn2NHfEM+w6EOuwgbNghUOFc2nGhLz66UHaoOmwtEV+vGWocHhRM647P3eDAUO+2ligT1JoZMGemVQURAkCiRyrmCQz8Di3fUYwXAyrDaUnTweEF0ktf9zPixYDQ+7qUSBsJMaqsGXZPL9xAtSv0+MwCvjdoukWDTUm/UPVSfNL/3htkTewsDstq0rRLJMToHYyvuNhJLEZgjQwaVbDNu6f9YkAU1mIlACsjEaYMvVCCMEFFfl391qef+d6gaYZjGxDOVywAD8eU6vCK1u2Fj0aFhFndn/BkaVqzuqHbgFIiUQpZ1IC4rOWyd2gYP+SlHtliRzdPzXCshmyHbSC49+o4rdn4l6vhS28Dge1WwwqyICxOewdY3sGItHegYyYYIFkNaLVm88i2AcEU2TDjxTdQNudkG9Bxny0s2wZ0i2bzZtZE5nIUHl5qQDBFVBKaATGYctZakcXk0KituNQAHyndQ6QXA6LapGX0uWfK+jMLwe32T1AglyzNHtMEyzU9ssuvX45/QXfQwKKRqLGz9U1Vrc+ijJc9Sinw7EdfRWAjaP5LDYgZlq0QbTFjNQq9phoQbpeNWhlwDa3vpB7Wk432zxokPiuTOt+BgvFL61piGC7K55YakCsQ30Fc44UVivGlpxrQBooKk4/fITxdNlAUgTmxyaOmiVVm20AhrMHUGSvTikIvOgSGhYoDYYfUtTDnmeN+b9DUD41ADkLFVLU0YTIXM5U3BvgO2YoTOmblkyO07P8kKzeeDZ2+dGk9Z2CPxKqyD924gM+WXkPk0Ry4yNoQumQoOQs8dIt0K165TSOyyazkpj7ArFhdUfXUngVXabElxAC5cZ5nxvnMBppmLHC0KGMmxN+TgR8J8Umrv51cgHipvsBgMpudpWMi78UYrWNgNuBSmHt0dCKNUDgaFrhful8Gc16snnBU9OQvDUYGuyGXMjMG8yYMARxMzEhKghhcW5Te5K0pdZgsc5iQoJDte124f7M9z4VJCQtC+sI6pKKJzCd0/cl4pd5MBF+qcUomXmFV/a2gYxDYqTdePyDCdwDhMb4h16gb66bijdp1Pezx5DoNPR96YUEIPa86o2VTC6g6lwYZGtdZ0GJpHN4PBdzq4jemMm6HQy7soJ/RhrzUU2zz5AMJurENMvlASe+8NrDMJ1nJWOtIL3DHbxsQMhDViTJLDY+JZ7Hhw6BiNmgbKPex4EW//ekmL82Ez+2xa6kyaw9tA/0OF55daeh3qAvDxW0gxKrK7MqIa+QXmG6TrMyncs1lxGZCHq4cX5rHXlniK5tkQmV8PWJkYa4nNrBLsHKeI0S3pPhj8a1Z1M0pfE3loh+uDAY3ipVbdXQUctWTOIpwyLOumnop9S5W8hmIKlom5eC7N83KlcTTavTkcjEAafJdeTEU1zRtEbV+9A5dv/QzxPvUQCrxODUfBl7VSbPkv8A+9pt3YKZubqpCEMuRAXm51kMngz+cxLH5gA42PTVi0/JqVSWjjLSnN2spodZiGBQ1wOSO0fVDLYZnSW6gzJVNsXKkJn/hpZibJp33FUN4Rezpjx8uKub5F1R9YTCGai53YuZJrpq2SAe0vNpLV7wUQ5RlqQGupWpV/wUZDyGLKS+dMc7Oxb4DB6qeb0rplD6S1ZpYG24bqCAEixVlq31NrBaVk0bn6ULQ9anm9YDX+da99OBbfDuYHNU8uWMKN7FXvLSgYeIJk6Yuo8He3jRGOSP3w+ARTsYNDQMGA8zdih8Y5zeWWj8FDSJ9wfJDySqbWXAhGVWQfbA9XuCjxgW+Jp/Kab5UrDqR0aasuZ/KAUy2cneswvAEAqN3KVl5Mp67ybJj+VBibY4O1pMmk5PL6LWkN/KOuH4MPk2s16Fo0MVyBpquv9AzTZeLoWKu3maTvZUAOlQMD4GRrFnuC9O3nhC7GBZ5IzaJz9OUi5aQj5qM4ccOZjJiGdc4OZzAYs9parIh82m4TNaHr+tLS2wz5ibitpYAE9GQp6jQczwSk4ryHxliCqdMx6P3YOBy4eS/B9TshlrgV09xnzjGledzuHg/NkMw74QlxrIJvFTmaxhPoDJzYel+P1ASL719K6qQlMubCSCD0U7zyky7pREoEx6ziXc0jqGXlbyjPkM2WbvG62eq99Cwji6bNEhFSnU4yzafPN6aeyAy+WY8QgzTRDs4yJua7GdBjZhPXf8YjZh46nk/mvgoPc9SdIG5B9mIcpW5AZepdaC3+nY/Ui7yzX7H+2ip918ZBTN24wGXW4qPNuRmZBOTPuzH7x3vwiEoTp/NnznMT7tfny/zT/vFKqor1so8QcqX9cb3uzVvOQAcxe5H2l/JQP8jkU79Acodb39Mks2FuQrTFKiYsmYyLxn3VzLx9cz+cFP/hFUiwz8XpJzjC1MVSKhzkIrBS8zQKyb7yvFIMj1TFPVLl6LqF96PyarGL/RXQ2jXxN0pvjC698XxiMN1WOCXLG+XMPWYXHySiduulMroQ9bzJCPXJdAW3Y+InhRlCxfkNjhaVJh5UBXBZX84mTAICwUmU+Lh+87Ph4bFksmas3XOjg9H9ygZmKbC+p3Pt+noJJ4ny9FP4t4kq0diaYxszRbGKVUvQhfzxPnXMn1Ex+L4UzSc9EyevU6eaDvGC3b/ckVltjrsxRkPwwfSxQ5xse5UDMBla5eSuD/Ps73aiwH+gol3xilJ71DVSUmsiRGHgjwSU36fUeDD4IBDmNhVOgTOJuOUDkVwlrpNrPYQJ48pi6Pv103Ge7Dz1+07TDx9sxV6JxZOCzhIaAAsnBYGQw2o+0K27giZRWXC4Pty7t2IBoesvjV4OPEGrLDjxEzwWTpwH7qG9Sd2hX+4A3+jG9HgyBAR5O/MQZGrMDJvvDQEyzvzaDTVwrTJbAqQgXexgSavWDg/koUSzyWUJcjezfLIcpEb9Nmw9VMIWQwaLz4Tbwhe2YH7IO8w+FwyKkNw4zgMz2JwuKe9yel1MtBAn/UZ4xQST/hwKSaDrrjxz7Mv1sOgIuEjqk7lpVlkybkDdSC8FJ0sxODINlB8m+kS+wqUdGg7ZCC70blZdCx1XUuNG6pGDCM0YpZWSNaxsnHWYBsIQbZxT6VkTmJjgaJkfmsbHChlrZprHDmkbDyFye9goUBbjDWZ/lZbPK2Xfrh+yDZbFXbIwJKetWZXOpeGLY2WQgSWxLSsVCRjODw0u94L9+pUNLdzL3TzY57NWT8ZL6VDveEiapod6gfpI/v7gwV01HHrE4sa6hvdVIKzTLSuL4TLrLX2uLBUp5hC6cUqAcoQH0xvsN4u48DnM/QiMRxtrdEO9ANd/+MAF2u2P0r5vqs0ryCZ3FprD+7FZ5oLx1JHH0/rzUtHO/pRSW+BKAUleErR3DGZjmLo1EEdRJ2u0DDl9SmltQnT08Ztm7w+i8nHZax3qJotn6xHYVzBp1riJ+ebBPyTBegNgtjjybWxUsE9nnxYQ1sn6xcPEy3k9PFUtHtyutw1DuuRPJfVAPF625GTCRTJwoKDekCydtwHeYJkiOLkzjjJ9WMbUx6tKOcpG/qZSy39g0JWgmF7qeGdXLoUeUkTdqTEfPKlwbzibEyByX0PslV5hg41c9dUL5M1TbLLI0+GUZMJiHBnhSeb72HAnXciXdvUAAF801OOli7kshi/OPRx+JHeKBDSh8vG4D9o/GTTdOMW7NlapK/MNWdZgdrFXceynRrR+Y+nVVXjCoOcSVHRxb1MfLWuQ8lMMgG1dkoGCVllHYCppGmFxfFBZM9doo1myRoanRTXTMd3LcYsL/sOi++4Zct7HaXEqhpgkdq7l8aKMOuhurioJRbfUgPMQ1rD0v2lEZ22dqInhTZjim8DpEZWrRherOb0pF69GBxqMMXXWNyaJOBsU7NEurL11l7cti/S0SYdiRqHVq6+uGFFtvZbcWrwI6kcbDtxMJvNEkV5TtJbFRVeymXCjkyjCN1SU0Yl3lpJ6pEt9ryLNUpYzBwvxoxbBSvoi5WrRztcCsZM7yHuOHppK57dtyh+B4t/DnqCxfzWZ4OJ9wbTZBozR6wuZskMp3qZwCbj39VKKBb3dq7ua1yYuIiugUkNCAqu1U5vxsGqB7oLPYE6TDRusUy1HTNzYsVwXRYOsOvQrHX5QbGwGcIeEQr9gm3RiIFIOa6qFNBBgDAkXjyOg2ltXT2BQ9+DNt71n6BfMAb95EuxGWV9dtyi0QIgmwH8wtsmA2jwro0Bfbi3jRIo2u1WQT87Zv7eNnvAWRqagT0ZLNNF5HcY5qw/2ym+N7AoK5rQwAaKth7W5obw5GG5xTCgBIxlbCa33xpGADzoa0477mfDCGVa0mBy0uZNixjuvPymCU3D+OFNm5vGrT6tyH1yaDmtLmxyGbd3sp3sSi9jFgdsR7nCos11J/ut4U7ZI9GpsYo2WpvcXc4bBAeeCzvOW5fPwtOaNGiaBc+llQziz+iGvulqlpGWtC71ZrYBpc4D4LIsBQreLRMKTqxQuwxvvbilnrWjm1wX/cQNXwwIE9gGQmYcC0OavacF59sGtJbmMB1KFtSa1uB9GxDZ/tnO62HAiO40jug2oPz5bOqGjkM3XlPgGh1JEs+EycOgIWY8q3VbZDniSBEtNSBsZhZrnlh4eRdd3oPDslmsEeeBV2Gt0UfiBsFF69IGC/3FLBkVAFtMVpMR5aYE02jc/bC8q7E9BhYnRzJNDA6dO62nTGeAdlaVLwg/k6dVgqbO1+4sCiJEg2BeGtqNt2Jbj1m1RKpze8bpLBEu6p8WlgWthw3E5+tcljQNq4xm09zvVztsJ/b5jFTaubJtWmXSgYvlR2W/MODwnsWh63roxitEwEPjcmvfG63R+ZFUdXXwd2jKr2yHHdesYL8hZcQbZjfmfE3DBBqTyrw1eiunHt4SsbeDAnFTV7oxD2SalOA2IDT0GUg+DJi2GqCECcESuXdaB6TKtRzhzSw1wMVnJQF1nvoua7E80+nChZNfYFLpHCZPwkl5d0Nr51t0mgBB53NpabRbGyZSl+nvV66B9z6zlTOvK+kxUwsujUguyyNxuvnZS+7FAMMy66VeE27R1ZSa9uz795mBXCiVpaFWNymghSffMm2cAOdhLS1TUo/OgvSlh3qVhVtMrqlxXBlIENwG+gsDq9giz9rVANXXTQGgcDPRZSLbhVuuRrrOdI6JXbRctpiDplWV9x2pJPoF42AdamqWQY+FZfxiT5v0Mm5RI0cUlqqInIxVHlG27Mn0eTGgBN420LVUEJCKBqtSvZ45PJ62+JiwOYctjYRJlzlMXjCx7z2sPuuAzQx1pQtL/k7r91u4IVjM0sdfyNxhJm5R18zmX5BZCpVTmlZrk5kn8jWmZQfy5Eeynn3BRqU9bdzQzPrr61JU+lCvuCyL/+RXfLqnmxrgIyUFQqIgkR4pvanqpGZIkb42ZXFin0bDPdMuJyRxZT1boyCRz1Z96YpLY1ltU6hk8C8ISeUgo7NM9DQISoeXTmpAQnaBrMuHY57AMkrVQVpmpe+UIg/sPqsBXruG3Qdrl7eohGVRkMhQvMppDsz4hbNe1ABxPhMwS53PVsPuEych59Kc4jagtP+cmhdNLII3TbQksQrMtN6JiesAPCyLCsbDPT3VAEHmYTobXCoUwasZIARs4cBTevgzA52lxM6JRSiJqc/PnP2LAcKnTRGsQ5LGGVWco2lWUMJ52ma5NQZnrXfWAT94Mx6dN1MJ4Qvan7/jZejzw72+Z1MhFa7cCNxK8EOGS6zXCcuJTutFxvKL0yROWNZldpfHxcPUFCAKgzeu3MHo0DAHjA9GIyrk06mlAi38fU2O6gCiT40iL6zvistJ5eSo3nhas4ILaalzaUqWiYFPGuDLeHbJxaPgbhHRSdmen8kD4k9wa89lYvCH1nSXEiEvjH9jvMqp07Xq5AfuPR3j9fnRjb30/LnwPFmXhrIJGVwRcqk8Op6fpojBKOScWlCbTsQkyURkBMumaxNxpsPkZDJnFZrSK1m+0NN4GeVtphXIZqzPn1nXJ8uDRife7xwvqdTD81grR5b+GMbsz7h/n+XRL9+L+IIGR2X0T8awRmAY3o+u5yHDY6MpbM8+8bDS0sStr4smgLhdwTD5fr4fo/NtlvF0Hg7rXZzwvO2WLUq4Hrp9X27/0Lv/fQr1etcMXMIMRXAfzH+g57GajYSs+Z71PL8wtu3J/Q1sbXupP3nh+dyWcsYupIw1k4+/MMHf3rTfoLRYs17urBfTLF7j9dNM6yshobMZUSQhRtqMBpWRctSsNpfbgTQTFOHzvJmGEPvzzfyfjOuzWe62oL9Rl8aPBVG8OpW3X7B8onq+A79vNYEfTvHU7nLq5M9Ua+pY8fzZ47OOJ1Jcrd4Ogfb7M+/9jH/x+U0uluPlagIzDfdjvfR7MYW7TPVX+e+XaZJYPH4ozHwYbxDWYXzTog/WMStOwcL4q1Rr0Izc7VJUsIS1NUpWvIh7WJfkeAtWWSZ/fmx0aa2Wj+1SpMCXC1Hz0CxCZR3G/p3tUrq2y6pcq2v+TGVJjebtfLCe2dpxVZbzNOIY411PeO45nuLNd38fNYbfPD9lumJ+rD0M687a/KP8QVfSwaHdhQnCMTUwGx74/x2//+HXH3//6Y9/+cvPf//7b79/+/q3L6///y9fv33567ev//jlz4//9NtPP/76Zf/b/wA=);lineShape=1;" vertex="1" parent="XJAstwMBB5YRr8NqRWwe-71">
          <mxGeometry x="2106.291533821708" y="405.67203322880323" width="685.2867125044395" height="1450.4350777961479" as="geometry" />
        </mxCell>
        <mxCell id="XJAstwMBB5YRr8NqRWwe-64" value="" style="shape=stencil(lZ3ZsiQ3jkS/Rq9p3Jfnnpn/kFlXt2Tdo5KV1LP8/ZAji5s33SMPVW9agLwRDBIEHIDjh/yX33768dcvP6Tw2+/fvv7jy3///Nfff/oh/9sPKf38y09fvv38+/qnH/K//5D/8rev3778/dvXf/3y1z/+/dcft+T+p//8+l/7F/7nD70YHj1vrRT+94//Uh9p/v9/+I8/5P/58y+v8qOKfG8oP1/l2yPS78dHyCLfCsrH8CLfHzGyfBP5FlA+lRf58Qj8/DmIfD3I9xf5eb3QO/mSRf7w+/X1edYXCZUVmipUfqKWVGHSllgK8hc+XuqdQg+qMPkjd3mk9CgHhaIKp7/wuq1jfhReVlc4rJIqlEfp3/UO5TF5a/T4qlAfNfGHe92rsT3CYIWgCo1XqcxXhf5IvEq5qcLgl47jVWEdUHqktZlFYV4m4Z1C76owWaG+fukUHo3OQ3jkVxuQPqzOO4WYVGHCX5hqtFNCGzAf/fWzpfwI8MpTLcCSryhf5YXLdU28kS9R5Wlnz+vO+5CvjwDbbtnoqvL0xeYjvJ6DdasleJ7xGF3lB8qLvVu3WkF5sfH7VoPnH488VL6BLRqPKM8/Hxmep1+m8JP8hN/vaupywOfpalYy3zhdjUROjwS/39Qpyhm9nKaXci7XjnojL/stV/QS6mPI7ze89OujNJWn9V9/Xda/4/4sj/F6fvO4nIY38mIR87zs/Bt5cbpKwP1crmvrk3yD38+PIfIR74D8aFPlO1yUWfdDSY8M7kfWC2DJD9gPWfdzyY+EzyNO+JLvsH/Sded+yBe0b+mKGT7JNzgv6bKuH/L1sjBv5GtSefq+Se+L0q4VeyOfk8p3+F7pWo0P+Y7rn/S+LuzVJPte47ox7x2C6/b/kF83IDkQj1FUnvwH811ruG6oN/LiWNaPKOSd/Ot5qYl9Y7UnNXPEoeexFvbur7/+IV/ZqXyU1/Ws7bA+EvTVzsGD/f7E/RbV/je2h2t9Xs9LS+jvLflX+9PW+uN+E/+wlcPzCIjR6nXjvJN/tVetcdSg+7/167+8k3/dD22gfYvqP7R52M9yv/eA9tYC6CWPoeGjvj5/j4f3lf3Z0+WhvZFPr/uh58P+j/L75QqybuUtZuv1usHfyIt/0vvlsb+R1/Ucl8V+Iy/7v6/zCPszPMqr/AgY4IXrNH3IR/S316+97rfB/m0wUCvj/RiuX/uQL4f1TFXlyV8KFyjwIV8xPg0a3412wYDv3reofIfzEnT/j/7IKF+LypM9X9ZY9sO4LPC7/SzrMw/2WfzhJU/xeNT9M8Ph9+V+nwF/f90mr/7PXE+I/lUx+YL+nqzPkif7n+19E6LkFi8s+Q7788O7+JDPh/guNJUv8DxV45GZ0R42e9+CMFy/vs4necJDuu7nWdE+DD2PS57sm+EtS77B/plXjuGT/KD71wzcPCCh4YKTPykgimgu61KgEDimy4P/pEBnYCkMewcMGrLeYksBcydFw9R5gH+rJnO2Ai1rvVlWCsRiU6RsK9Aj9ZvvQFdTHHoXT7474lRn6PAXlnUX9GUrkDWNZk4bwmUeH+6tQfbUDWrDhMuykN02H52HVBQC2CeO3qHanVA5hjaQbSl0OA8b9cuqQLm4Jyj7SaHQl+5X4uCzAti9ZSgFyNiGkv7C0MhjK9CXNqh8KxA0NBWr3QqwrDmYIavo/G7s196BbqscFV5ZCgTXLoVqL01Z5vwRDn++4ODDLQVBqNcNSgjLUphdFQZ8h5zNx2AfeymoEShoW3Ox1HRBM7MUdHtzmJ8Np94K9NL1CnP/rEJT5PCk0M0VOyo095XopYeCt2cFPXEHhalw5llBr11WKBbQnhTiZdz/5F4qBhnt3QonriSNObcCGIENsZsCOdEl25muGMWUojDHZJh7KQw397Ss1bY3A5Wl2SpV9DWKhwIVKymWgmBx+2KnvzAU/J0Nk2dlKho6P97qPloyuGP73mCMa7yujz/p/tR04+hSQF/znQsHq1SzplQnp5BrsTPdMYdWq4Kik5Ma1X3vjln52m23diw2q8N2K+MqS0Ffelxn8F5hKnKzFDAzbKUXSyGzgq7SQJ+vRYuyBiYrNlYfTAFWqVm67qTgkeJAR7cVO6IDAb1Wb16aDFlzQzYweG1dCwW3Ar3DuFLsnxTIwVoK6mANjFDaVNh/ToRNerBLkasLe7QTt/x9sEs9XTjnJwXKXPds32Giqezlqrf8rADL2ost60Rco1fzl+aV/7hXaFqOtBRoL/V+rclnBXqkoYDsnGjul4LGooe/4IZsIkQ2wpWx+JOrNBzymnjHDY+yJpqZnbSw7U3R7lKYtr0ptBxZE2GTE+Wj3KwSAYNLQZGTcRXf3StUc6UH+q2jmSs9+Es3g1oGL2s35GRgeLwUFG/t/A7DbtF+3RjvFPTDdayA2gkSQxIpjhu3XiU90jS8tV7u+z0o7SAzgznT0kQHEGFnVSykoTzCTqsEVcBCTKvEnhmRxOnIScYDtBQ0N5DQLq3/rZuPixfW/9YLJaIhW0+cZC99JKTfKUi9yVKg7b0UuiXsJjiJ+zNZRpCu3aUgV9Zg52QpyIkb7OhOC16XWSAE6wmhfVIgX2PDgJ7G5b8gAO0hT/wEfD8UKhcyVz0P+wKgZa1X1PZJgTyyaSmRfYnR1qgaKa5rkoo9dnweVYEC8NnUzAxOz067skbAeo+tMFWBHN0NGby+w3KIKMqalh1YLhfupaaw3Xbq+B3EddhuI1mNpvdD5yvriWJ8KFS+H5qa+6VAdR9bQV66YCHEhj2sEggztU3vuH7crd0UsLa/Paa8dERcY3sWr0d0xV0UcEzzl1ZkR5HiBla6KpA3s70jKdAbnDDvar0b98Vth01K7j7W7Z2C+N6NeyCeSMyHAmOV20sVhcKX4tBodylk2ktD675axrrraem1pUBw0Xb+5TskhLF3eGEKVIq2EQCpZTwY46mGbENU9B2mVjvXyVtjahy3cTlWEOekdr4fpsIUlRPac95U9OIBmlZiXNhvnRpl1YQ1q0tBNl+NmG7eClaFTVW301K1uyycv7QY4zKu3fV2laTwv/OlOLXzqDTMoezd+vrhyiEGGmqXSkagfEfPr8tauLhrWkVI4er2bfnkLxw+nNUJZO5RnF3LL/LBOem6W3eHEP8FwZdyvZCOt1eW9CAVPg9dz3TOWLS1FaQrKnFY1jWtsxQoH/fEGD4UIkdZTTGBzIX32/2xTjlc1qZJ+TT4pZu+dOIcyo4fvFmRFbRblLtzdvGe/IWC7RtbQfot8yloUoWDk1j1POwiKzqiVZutU+D7oWp4HCc7J1WbduPA+iUPmuJgc28Rym625s0n5Aaxc3jcFJuJDNvtAySrxHnR2RRvPfSw+xGNFctgbv5CZZ/P6sgily5shaAKh2j3hq2A/4J2+qfTXhIgJB5ANYsUn638b/eSvMPRVIobyj3F+zgIEn9ClyROHBx9V42YBpaEbWxJonW+S6pW8XDCf8NpEjnw6S8aSB/OgeV0K8d7xZoYMdk/LTdzCN6yIssZe6Bm0oK5zPstqinK/L2sCpF7ajYkrL+PNfPTbk0ESoY5wuzWDqtLSxiODHPwEuYahhmtxJwGdn4TFqbuRFpUeU7tDZUns75xWl0fOl8jq1U/ykvi4yCf1F4lrJIdtv8P7xuNNITzYZZLSuijbQhY15Ow+SUfdP8Tc9NuyTN5KkywsC4i2tRt/0eMb7rfkFh51622LzInRlHoNSLyuoFZ8Qkwit0toPr75Pv1qEFs5LKNqEDWQT4olMDyzUhqDvLD/O+TfPqu3+/+vVC+aSLoKJ/s+eF7bTTWnocK26wuh/dbM/sZuf4qW+zA5VdWUsk9gM2aDBP6by2qW5/wfm/GNJew6LRZcRdzNLWgNacJ/Zk61b9KWK5Qp9YsJUSI6lDeuIwQVDVSIebYqZahYOi9OjzERb9N618z+p9LPuv7JiqXtbK0jFnWak2hCQuJqpHmsL+3KTN0PxAoWZOGhIm/b1RcNWIUXK1QNmK6tEyDCtAfKGbPA/rPxWqUAsaDpWtAGzBPX6wsKyAIVqra28DrU9X/CVi/sSl7osrTembFCQPGR8WarrkmpliVcsC8VkkavwSMR4rxXB6+V1R4LXCrRVAMMuB9uuSjvm+lfq6p/ljADO+SL7r+xNmVLbEYEInLQ+0nn5c8NMN24OyyZgDmiMtd46OjfNHvi/JNSUkO62Pg6WH9rck/oH+1u+/M/tD+KZqV4v2cjaSMz0s20i4+j9lIf/i856B1TgHxhN2H+j32LU2N1wJ30g5Ng7C9TVYPwfbcSQ/5vkiGW/P6J8sGsL3aSR67H+n5q+KBAf1PJ9EI6H86SQf7A9u9U/+B8JbtTmm8jC3x1pDI8fV2jzR+RA46Y6aOmLzZy63+PMU7z+3y5+KdTWNg+BsxYkxdT453lrxmPplDbHp8RPst2vnlbHIcah8y4ldLXu53jkeeubinPK6PlXxl5tqwIrSM5bqxae91QTxtJ+5UnuKdaMWJBeO7aCWfhQlVqsbvnHSOVf2Tgn1KOysopS1Mv1J0v5Uj+4q+L/knm49c5ZEZJRvJJtqTmHU/F6bFTrr+zMkczX/g5umYFG+pzJFo+HZlDkMj3TuwqwfFPxu2VsRgpIQnebkvKturoOeR+VNiUPytYk1eDOoPVJ70EKxgDrswYjBSUfTf9vro8x9I1Yc+/4EXXs4X50Nj1Dbdw+9bvHl4/qj+/HE/R/39w7SApM9/4P6XeLwy0ZKRQh72Z1R87Lj/tRT3eB7H98krCSnmc7e87h/KN0WjxalYD3B7Hg/nXeWRs/fmefA+vXlf9H9sPSv65/69Dufxe+Wj+ktMFxKt95rrH6KRwBa2n8Y5cfA3nBQb4+VdIWT+FdPJBV0fXE8jMDr4h9n9N/Qfivu3yJFbtD4hsz9j3WiZ7VW1oQXsb1e937mOede9JZFHf68p89chXmha650RX4o3+RTkL+xq/zPWa0VjXzvEX92GavB+GIpXJF5/I7VM7J8Pr+c5xL86dOQUX+tUGeaEv6kvovOVgq4P10skq3fifO4THnrKkz1Mlm+NuJ7JxyUxvmeEnBHrW1LyfBauZ9b6gYBNM8nsYWDWyKLrH5jdsGi8H5CGJlnvbMAOm403Kj5P90UyexKwN2XjpYrfIsHkTb4P8bHh+RfkNJ6O35J/mIPWu/IMlGz+bcD9lm2+GBewbzxf9xtyJlo9G3+vnY/Q/U/2fOc7TJ6e/yafgvI3+RrCH+7yQeTP3OWbiKrqLp9FjYF3+bKDvOXj8Hlu8n34fW/yifh9b/KVuP43+VCqJ7nLt9L9WILbN7L/xUjYD78fPf+OZIFJ62d4/Xc+3dbzkK//HvtQjKGOB1Pe1RvgjKebegZkX7T+GbbnpWk8e3jfrvWHh+9l+D/PgCjm7x3qGYyPhv2BavW3kfkBfQgn5jdruqn/YUrEqv4zdZzUoqMiub6uVs9PUfxSq9cnI1lhc/+f8AGvN0voP1fL1xzlm+az8HnM/znUBxolU+LvOz2eIv9z1yvq8yBJYdBmTZ651oLaH2Y9aYaXRsQbW/TzRfXhLXk9M8WPLal/fqjvzfq+PDOxFa9nxvpVIxyN2I9wV29M9+ldPTPOZLyplyb7fFePjfI39d4HeasnR/mbenWSv6uHR/mbevuDvNXzk/+8+wV0f6J8VvKBiP5SLzaMGPHhXvV+icxsaUM9uR61W7wZceZXH4pfHfovjKmf8ZDdL6PyVH87DG+PzOEXHc8h+7b7iaxfhvubip4Xykd7P9RB3vzbiHQD3s8V8T71frGIeM7uR9P9QETbw8jNIhNNNo1HIuKfu1/ve/DAYfs/YTwyhtbjJZyhNsx+Mv45pnXoY/3GDN4fh/2/lt888L1EzTdlpiRINjSXGWuyDRXm/tas9QwH6seieB3Pr5824aXg/nyOjLrkeZjK7o8WTiymFqiavzgwC5j/37mfutqQQrQPs2k8OJjXz/pNJvo/3pF/ZBaR77UH2bOCFkSyxzebjhWObLJm1y0RD2eya4wXMzYNbyY2o17AU9DN6+MyLGepiVz3sRWSKiA/l/+FA8ulv0NjJjYbihI7+mY3jBYH+rmmE2jjONF4SPQfmVZ/00fYX0B6Uus/jweKVSPePCCus1pFbjxRSAj93JnWRhW4yW5WIw0oJ9JKYWFIPDTLv8Oyw8gL4YxHB15Z51Q6fmntpJ8InbmZydw7sU+c5Np5oOuTDvtDITEljM21y4l50oyzO+cTP5f4U5kH7EybBJMPBNndPKTGV+hQ5tpNe8bUbcoANpnq1rneGLXdbHLCuRcxbfqcEfGhwLjYZsSTulsetvwcyPChcGBiMyrDcuCVtVbM0tmQTRtYzwzzW0FWiRnxYgjmTnJ/4v4TUk8YsUFrv7UUqCUmrLN5H7Wc3log98rD+faXk5q8dtpMAnrVzgyoU7PAdTAp61QYpR6ozY2qswVm07XGkBbZk56a2W2JqYyM0LQlvlGmYuktMwG8BbdLAWn9hjrfrTCJ/bDwpzJF5FAPq3EB6bQEV2sn51srcjuTgXa1M0sBqTq7nod28BJtRFWbmAV31sp2CLMsjdO5r9PZpfuBWa1roqUnfoem1rgn5us1hrsnmczbUPH1VuyFb0Xz4fqBbcwI63o90cMJHNx5NvE0PLgfCNyaEgT1caL1E0Sv88SpHQTJS082MxY1jUOIYknNJ0z8VkGGCUSGcZrCpHv6wCGAyKpwAlpk+gBXrm4FYQIs7PTZWNLB889n1d6+pYCbrypYN3iE4Ua7TOEAv0mIMjqz3hs/yRjYcHszIGSwg1U0phkHY2yQ+5iMgRabEsRFHDPb/Bvuep7ZxgpFNmQG4+6ZO/ThfI5p4vkGBixPzvRP66ybTI0zo40KO8SW0cY7HU5ctJE8hRnjw81wb/wOwaYfH1iNw83EKTL3w3zv5530TkG3Bp/pYfMNtrtCOZxh4854QueyEVJUNgdeKEtB/8LgyV/N3mFwHrPdTOg8TGDz8X+YuSqKF53GzlkpxeR7el1QOhN3IsA0ko3enjzuLKmpnIx5rWvcH4msxp4XaMuKCdZgZoYjxW4zGiZTAt9OVaQcqM9t/IQr3GvcjYbEP+ETyifys3fjHT4tk08Cnugw9XIzrZKosvYQUHskMht7zKgdCCS3jDZR7TDT07qXD8Mnm9FR7ENNCj5rmCGpZg1Fk92ZPbLW3oGSU63ZCRq4l5pxTM+BRQet2K04MNy9HR1Me+l2ODH1Xd2OPybD1OLNSxPmtfEnv4Ko9M9Kbw53VjWQbLJrXIcNn+SJzHuUtv0FKn+qXWG4ydFrNY75DddQgXC18ccdZ9zWYi/NE9X20HRzZ8i9r9n2UkdzX5OZysYvHTUYfabR7xWCxmWTcYoyFUXYClQo77NVeXh96XZEG1INlKZA3w7iicvPkoTP4Rb3CtV2a0UIqxR7B6a/Lz63mvkSivU374oVJjCUArDJlQIl2bVbuQUk2qXIGHAxjoVZuUkjWNFJRUg3T7tFK6aOloJa74PCsHHgR4Xo70AKXSurzwo3y0oK7iQeFAyROiuU7/rSTje4Fbi/z88DNihaQ9Gsp45D33zY4pctZGeOCe+B3GeaXtrvB2bJyMZKOpkWJxvty3P40b2C8eg85zG9U1BjXNGbSTaoblZuTbbS5lkxfkg2h3FyjVSyYuvTX+g3m4/u6d1ubI9Ejq7zMz4nPr1TiOYJUI1U8jPNI82fjGKfL3b60lYTPTnfvGtk7R3wOxhL12wYoewSKjH3HQ3Zs033swIRQ0yDTjrGcdGKSJ45vXsFG7Z3+gtNa3O2ApE92LCjyYMbl0J0BSrAKHZPsysdsyao95dmgjg1Ao0ZWKxj9jlu7F7BKHxmQydxcwq5K82kS+7o4ii8G18dp6xYBMRGxpqaDqh317TrZFanpvWFsyBkZ01fk1kSjYRi8nh192KYZadoPnQneOg+tzAjs1tlQ84SAgFG0jR56o6R0u7sEp17Q0y5ayraLRiYNUcrKZc8/b6R9A0etR0Uflry1GUSNKM+eApc0PXcSVA4L3bZPMdovZEXUq3RMJNmpDyjoQtsSatRkTXHquoG593897muyZp4B0/JsCEog6dU+frzMPhgxQYBI4SgpEt9HtZfzks/7R/Zz53n9gZNFnSuwTVSvF6wwiparVFm1jr1YfuBxdnWMzKLnq1nwNLVaFVAzBpiWbDGaQUj9WjjsJ5yfzUeyWrP3xqzSFpxJY9xtqFurTCLpH6vxpNJ401lJbL6qb/UeEqDk5BOZgVWF7HytGT//YOHqM9fK+b8jdSsHlirNTbZY35wv8n3qunw+7If9tB69gdkPXnKh+3nwuWUBpeUifUHRuJcuPzASBxKx/q3qAHAkkdWQoUZyiGAVuSwMCuthTyF7/ekSEwpmL5Omg9c8jhlwoa8FmZZ03qrkrEQIun9teQpmM/qb5TE6Jmex03DRPCcln+VePh9bx+huDxrDLxpqijvoXhk5qKMovYhc9epkTplPl9Wm5A7+ttOutowd2skI5lZpa3/LRf0H5qRzLJ/22xIHseDTePTzPut2/pEnKJgJHS7kw1/X5vquQqo6/dNk6e8apZtd0UjviH+w6HretiQ4M5TcLXEKHH2dRjpUsPzaxVJqWJX/bAe08Kl+raePCVjaryzLQzKSyvNZimg4lMjdTr0TNl6MuvDvGmpPUwt0CmXEXOo0fLxO4bjvyBHLDJk4YMa4kSc31HHzUV8oM6XXuiOCRrn5o+dVykqjvWkj36rMFSBHIMYbXwT80VsBeF7YehxK1RVwC/tCvn4F4oqYDRp7nrkoaA3q8QsajffIZ7eQWm5DhGBhUB7Ox4GSUgjPndMbYWgCuiEG4oxT6MStJ6FqbWDZlsOIIAVqw8EdX0UDLfFuYXpp1EJ0hDMNUtP4pCnPDUCRqsa4SRFDFo+WjHo2PI2qoLf1+RxtNTN86TD89joCR6FIV4L1zVEQxW5LigG69HlIDqoV8SFGdGoc4+/b6OHDs/fdD0P62OjSA7rLyjq8fse5Nc//Prj7z/98S9/+/mf//zt929f//Hl8///29dvX/7+7eu/fvnrx3/67acff/2y/u3/AA==);lineShape=1;" vertex="1" parent="XJAstwMBB5YRr8NqRWwe-71">
          <mxGeometry width="2972.532411184427" height="2101.8868874098903" as="geometry" />
        </mxCell>
        <mxCell id="XJAstwMBB5YRr8NqRWwe-66" value="" style="shape=stencil(lZzZkhzHDUW/Zl4rcl+eZfk/FCHKZJgmFRS9/b2RHmd110X3afONGgFdWZlYLi6Q9ZZ/+uPjL79/eEvhj+/fvv71wz8//fr941v+01tKn758/PDt03f711v++S3/9NvXbx/+8u3r37/8+v7fv/+yJNe//vb1H+sX/vWuV9pR2tJK4d/vf5lH6P/9w5/f5T9/+nIvX48wRD6SfDliFfmcQT4fMYt8DSCfjhBEvieQD0e/rj+G/QsPFbI9v6lChifkcZSgCp2e0I8kT4h4BrkdKatCGaBQjxxVYUZQKEcVhXTkCQp2bPIO+ai0S2m/4qlgllVBIe7fOxXaEegJ4ZhXy4v9iKxQ5AnjSHAOZmpTTnoehRVKuSikcDRYUhrHnFeFeHR6wjja9eBSOgaYhikkWVI+Jin0Y1wPLvHBmUIVhbZjyDOFdD2H9RdwIPu9KQrjyAUVdEnzaPwEcdFlXaRQ1TTM4BM4kCnUa1wyl+r0DtUtqbK1FvUHiyMDQrEptKvxWWjL/IRyNT4LnpPMu2jUKHH/xGOFfIzrkiz+D9rWfDR5QjkyHVzece5UqEenXbLId33p0nfKe6yQtgefCuOo9A5p7/pWqIEdKOou1Xg0eoe4bfNUyDssPFYI211OhYJhJp5Z+VQ4ffCxggWyqz/UcUR6Qj/K1bzr3Pb7WMGi0NU0mqVdUigaNVrCMGMpULBJy0ehJ0Q1vlYwsc9jXHe1VcQmQ3FAaxi7LbBmlSd0Za4iW9p3Tn2MxtQV2tix/3GKVsNuhj4JWu28seV7QGSVNFr0iOtJR7yup6ejgqPFHXBP+byD8hN5wZ69oj2Y/Vx9oHd837gzxik/EI9EjUQjoP1ERSMjoj1EhTsjoQ8nhanD9hM80tnDqPsEn9ingNTRdpR5Yv+Sz0bHJN4UcQ6uvrr6+wy72HgSH5IUa5FjYjiGVFOcX1dZIOWj7RlkcIuJElKmwUcKonWHzDsFAhUL5V+NYjasvyzVSBSaHWtUy35idqYwOOVneekXlUVRCGwKLwBqHKowKIMPNVVTQNcJu86/V4BdMsCrlfzYtfezojM4BSqnDPCqO3SsXazSrlUVCJUbftVzaDvEPqMXhjPv/230M/5CQurMO4k+I0i8iyIDUx0Dw0GjNEUhY+x9e6zQtXaxMNlIYWieHYYESGE6BS5rDSG36zlY5iG2wBBylVQ+MfXX5BQM64A/GKRukpwrxqXq0NFCC2CttW5S5w6OULFTT0LkDh81MD7D4AIwXgAww+CyS4YICWG0oPSCQc4ECcUwuJBhhpkpkBkGlyBgf6G4tH7vukv2zE5Lag5mR35Cd7g5HBPOwXZdgIwp0C6tc5UaciJS7Y6fs7MfBE2yFv+mkOgJxZWEfcPdxwpN84PVkIMUup6DKSC8Gmqt5lLEPFmMEDRjTksvbVEoX+k2CwtU1q44J09IiJcskgrWsFg4wOMMAo+rPxSm3A3T5uvBWTynwnk4gGUphhiP6bBGKegPBmsFka0+Apy05cx+3aUS8RwsK0tcygOxhuFgMY3cEMLdYO2pUDaCeqzQFAksjpyWZP4lXO9EWzL8FUWBWZvp6eeCcWlhSGFiE9YPc2rKSty/mdM1GgabxtjI4lRoCENNQXihWLBCmUPBemReyA5OmFiru9Bau3vpgA2f6VLWxIxlxirRfiBwMG+QOrGzM2QFrS+cJ278eEa9bYlPI8z1CAqu30KYsIsnDH8s35S5yUjZWtQW+YQ2Z2mhDJEnLxhBgVtEhG6ZUABGxJph5eYi8kQgdxdOI/bmetw8yk2eMrkBpKbyhFObqwzjbq88lq/aNo8IpwxiZn1fBKnRteXQHgzNiT1nTMkL+ReRH+Av1RWRBWG8oRqFXkj8rQbFdT1tszjP6jt534ZEm0EaoeK58L8hmps8VuVVU+vAFGDy2cnT+t3+D6x/F16SkpwL7KIgcGCiN/muv0+tkEfy5I9rPUX2n6qP4pqbfRc8T/dTSmX033Veaj/lhT04eV5PU3tDyqX6/SEuweTd/lD/2gC6+MtALLp+39kDv+9U/EAVwWrCChOPcxBrP3X9xGOXB3jmhT8mJw/xao1NZV3PC/sXDg47uEte3xcbb45b4u7q+n31F9yf4qgo7KKXc4bkzv75fJPaPzXGfli+b4bnll8qne9QfqXtBPssH2mLfve7n+XHrPgW82PeVdQtX2P+LVr0ZM7vTdef0J7r2PX7HV4l/BZdAYPkquErYQF5Pmf1yZvIU3xefewp8kQMLfyp6wlEhkVlALmqXUxwVHnC803xTMC2xML/Q+RxsODcvps8cXmrr1ve/v/zWv0BqYD3AT6rv4bieSKQrL6TVlJC/DBdfyFjfJhJ8QP748wabysORq0uk7DgzFk0j2cov0w3o8ps8KI4ZICUHWYOLeAjzyzN6YZgM4bE6VoRkWt+U1AbatgXjiEoaooD3cweofOdAXHxWtP1rc1QkWCbWqguy6MlDUVyZkovjlpC6RpzpXfois1yxL7W6t/LXGFh/vhsrJ0KnW2jKG+5xr4hnpp/yiRviciy35q0dww1RbzpRjEWBibifyrFULghObobpjzZ2GdBVSbba8AoNhyqqNwIG/nIopARJ4yoeXA1YCjQBy3MasVKpU9lSgz7ZHiH3l3oZq6hN82dlYvjXt2SeLKiu5mBOnGOqSc17xb2tOQz/CL1jSkQoG1Tg4BBPgqubagDtYRLWqOKQxWI41qcnrxD5ncoCqpawfGq1TeWJVWEzbYnEr0NiFJ7pAXXGOZCvLpw3yZOhZsx61RC5Cc0NyiRMMyYQwrX3guS1ebyOvbYEK16dtLwLk6HJG15WljoxK/6ScmIKcsiqQ7dZHRRqyAlVI7Ko0lDhz3HCw6064C0pRjCGitByages/prFl8UEs7D3qb9T4WCfSHLylLHzIZRIzuUOM8pgscK3U18DZ4pa1qarxYl7FL2V+gmFhvZjSUv2Phjs30TEdmNDbzBey5YkytA5+QbNC64mgJFgTWM3VSBosAqaWWSjklCA/M69zmwCo0uBc2Ok0PR0dKz8bBrdtOxfCvOqiqBZGtQgUeC1YMyth6GYu/JM9zdTa4y1eOw/erlErWosf5W6z92BrW7wdR9cvJ8vS269XAZGrTzaYkhwfqDzv9Y5iHqNeiF3sHUkKtx19QUrkc7aQ2DUXC5ueJ9qqClW39xyWb7xx1+oUAUdbi1B7TPpHepDFCRPWSHa3mIubjOJ9/xqApd1kAlUZ3ullPFFNt1gmfNSxJf4EqLgvkyBqWO1y0qcrCkJV5LONAWs7IwjSGthWm9p8UxyBKBzC+vio0yh5sIrXwn4cF9uYrVTpzuvlzhW7YuUNxGoJ8piGdWHtpYruknEWGXbk2BOwaDziG5MaHS8BxWdJcnVEz5yRO9GZnndYdJlpQwnq5Oy9WhC99bXBlNZpEmNtfWHdjrE/LgK97ZTTu17eXPFKR9bSCXSMYV9WRJme/xFjWNHPmki5pGDvjJg3Xt3fGeCIGr0meJb4elqkOqKziTaTTtmr0Yu/EX0BZcYgUp8dadOr79L+lq4XRWEGJotYb4kwcSNSy0EamyRg1kNmzgsOA6Vxn26nwRfu7m6anQMC6ZqSVRKHy5KrjeREbaJrsJ6cg3+9b3CooqUAvTHFJCZYxISOTsBm0Dumh2QwirOHlxQUw/DoN1cNOvNkyEeiss6sdq8MMt03fRCPoXd9FwoHeW6KesiC0syU8F4VSKA0qd73m5KbRzAv2xfFPWrGPXc10jyCpP+9P8lBVOgTQ/ZUUD9ibv9hM/RtR1arbzlFJ3tSaWFutLFDoVlFhe7zu/mpIJap9oz81PfVEpXhx/MpgebNqVnxiyfvjjVy/l7R+3L2399unz5/cPdd3/f/0yl/3p/ate+ef/AA==);lineShape=1;" vertex="1" parent="XJAstwMBB5YRr8NqRWwe-71">
          <mxGeometry x="473.5097373728986" y="136.51794067017136" width="688.2058025865181" height="568.403588759923" as="geometry" />
        </mxCell>
        <mxCell id="XJAstwMBB5YRr8NqRWwe-69" value="" style="shape=stencil(nZ3Jkh3HDUW/htuKnIe1LP+HIkRZDMuigpKnvzfSVFV3XdQ7aXlHdif65YAELoCLfB/yN7/++N0vHz+k8OtvXz7/9eM/P33/248f8p8+pPTp5x8/fvn0m/3rQ/72Q/7mh89fPv7ly+e///z91///8t0auf71t8//WH/hX1/lSj5KW1Ip/Pv3nxyl//cHf/46/qdPP78fn46WdfyE8fHIQcbX8np8nkfvt/H1iBHGj6Pp+Arzz13n045I4+vRq4wfNL4c4b6f/Wi03nTk+/zHUTKMD8e4z2ceCfbHfl11/IT52Me3+/7EgBtq60vlLhCP1kDANjzdBdIxaEp2ojKlfP7kWaAc466jsRyRpmS/HiowEgjYBGQNlaeUjilTajwl04uiAjileHTZpX5O8lkgHDPeBcaRBwqIasd5TvJRwH4d759gfyKDsbAJhLuy2qrIutiezPvB2b41WLQd07yvwY6y0xrqEe4Ht7SLBMqR7hfa9Pf3K/sskPXg7IZ0uNImkGQN/TTizwLp6LKGcQz6BFO++yeY2Qm0rek0opdAPI/ypYB8gv0E7N6a0n2Xcj4t5yuBdtclM81kuU1g3m/csv00JZvAXb1zOxofXL9ra94cXFEjYO4u0bYWVW/zp4GmVM8ZvxPoNKWm6l0CAoZ1Re+m0iABeXQzAuk+JcMciZTPrJBAknwENmTJCXTYVrNCYvmKoR4y99Etup5/4pW5F4dSGt44ExjzLtBZIJ+acwkY0mCBIlPaQI2sUKOa1SDHnvWKmsCAG/dmqy+BeFTwDyYw7rpUE8OfrPCq5mPSSecT7FwC5XT1rwSCTKmd9vzVSRdBuJ23NZ5A4Z3AoPtgF1K2dfB9CApa6zyP8tUVlZNuG6sxT2W+BOKR4BzMapSgAmjuDbfeL1Az1aA1mBuXTyinHXlpjJ3AJDSTz2O6BOrOZYljbwwSFzQXgY4nbeBf/EO7Aq5HATtoWYIFIKDdQw1lDyf2eDFeYECPZzjxON6Wl3T8xPFyFbrtMZxZO1d3jb/g3OP4qqC7l814cVW9on8uel69oUm1cFX2s6OBzGqMOgOMfJqqd+PpDqQT+l7hcGD7q/MZ8bymL8YLVhgJ9z8pGBkZA4ykIc8oRyXbq95gcP7CtFfW2zCfEhUQjs4RlRs/MGRLGh6NiWAtafA/w6mB/9v5znie4Ct9k7+fMEbNmiqYGf1MOW/fu/HkNarCtFlOE/zC/pS7/Zz1KDD/qV5sNgbLQYMWE6B0jbkMiQWn2UjyxC5zMTcql1Wn50CwbJ5YLrEJZFp0Vys0Ocu2MiFegEBa0HtsApgQchHCEiDcaJba7RLdfHNN2X8Cp/7qdIuGg8vBXR4TIGdwIaz3Bwe7lB2EMoEI5tQi8O4WTWA5X0t8p63kcCzcFQRiAp0z5jGrAKWELRiVpJYJVLAxFlsK4F83jqbUNWhZArToqSlYEyAzbHFZcmugKMfCrOA+gdC1hVnNLZos9wqz3CdEUG+LmtTWd6wVWBAkYdFGwIKg6ZSPssLNVV92Ai4buROomgXb7JIFENUJJFDv5rLC8wrFnl1i0OBxKR8Yge5AycYDGWbP7hzQS5fzBr8TINjZqyvb9NPrPQsMBf5z4H0wXF2HCmAkFTXZvqw3mJnhos2NQzHoW7xTBD9tWDb6KZFAf/APlKMydKo+rp8I7RlfRU1UzwuiPQuk042/A1h00gYgVZfMc8M5GILUkl5Fh2K/VghXsCRhE1CsURClLwzpYDSl820T9RPSaaleCUh+x06GENk6V5lSwJLEupASik1MVC8rdNcli5XIVM6mfnqwn55No5kV7dEaqt5pCyfpTk+Hve3SovIlzahaQEw+zo5J/LTZEUpU2zEVWUPEFIMdkyCyERAkrmOSJMlE3Dqumv8lMDDfuYJ4SXt0TDvZrmveqWNeyzZReA+9YQw0XJLXfBLZVtsTYQKY1yOHYnsi1rtzLN3dfeiRnWJVM2PYgLJhy09L3nmiy+quRNcGgxOXcGgNEwIGTrJL8lKkaHuiUyoYHpuAVHoaF8VtE8ddNVaynbBG0HDAoC85lB6UYFEHelE7JuFLrKIHwdCpicNasYreXEhTCxqB5sqMlX2cCUjAYVERhZYmEGSXAuZmmquSWKBGcdwSEDbWQDPzINBOdXwpINVbNjNLQArKBSP2Nh/qw41VQ25ciWjITECS6CXgjfPamplgsYocItCROrDsnBAsGoc0URODuXLQFNUI5IK5GTNkgsjyxtxnDcsW54MFBDosVgmHZXLjMmeXV/FFGEqTP6GeCO8SGAgSl8tyZB20rU25BiuRRyfdzgTxJVARJJqAUBpXVpsEXPo0ZfbT3U0pIdDtXR17ihjSmICSpgLSstYndBVAL9rPPPopEDlBu9CMI+ARtcwExE9H5pYuXQoqQFDa1FvAeqwYodiNU5piQVTZHZshZgw4Vm7mfg5xA06io4tyhW9hjfsVjQEZGc3FD5EjxTaUGTMx3mhOu7lcsRCkQHW8PTZeajqNHWJ1NJoz9H01Xq4Ca9FKOt7/fkE+Vsua68poU5srIrJ1aUGLcAmvfnXQMKJ9NCwbROMwOqxNEwds7AyYCslgM95i9D80PmqRlRncBjKnjieoXVw17aoyP4/vmnNLWDswhCmkk4Tntbh4qg9UDbTxVVACeoLikr3prEo9j29+Prg/TS1cxoz7Gi/Qbjd/ZZEiB2btv1ALEXXZeCEwX9mP5/FF8wQF7Y+NV8B/Ziaex2ctwxRMONl40beMaH/12Oh5YT0vn+r47nxJH7KmnNNZQXw1XgEgEp1XQKb6SUkUGy/2c3O/ipaFE0biper5Ju5Bcj08Ce1zcWnXhLisNMd+Z317GE8cjzUf1Qe0t9UFi8jpWhG69mhRXLbOq+t40rei+lkwZfx/jJf7Enk+Ve8jxw62/8LLDFh6WP6uynicvyNNcreF99cc5Xo8ENC+ebyxmU9TPBwwiK5DcxPhDApe4TfBkwFrRS1qJScwHnZ5hog1kOaqLAkzJc3598xZOlccK2ivVgleOOjYGtOGphga4+2hOYyGNdOVobvrc8f97448xdyp7vD8xPWuDLrg1YAkOQtSZcGR25lWpiqrAFHuu+PpRvbB/aKFvgu0MWPYXIti4V3tzopuCkRD3VjkwrUJdIl7NswPp0hxS4LQDMlEaNldu3HinpUlMFSAsgvdGffVn0G7NNW6J6Yor10S+Mf9sXYO2gRZ+ByGGkizMBTR96GprZViIF1y1frVBMnpuezyqpgxbC4oY3bjqqfKlLi4spj5EhYETrlXrYrlyJ9Q1AjkTV41u55GDv0WE0pCvw1fOWnWM1c29kmDv8XZpIOLajVyx5YGExAaXh6cro6a3y4M2JYDEsAcMcJZFDZBtJyi8BXWsin6OtbEpu7Wg5qZVdnjRQs1vWxKH34Nk+9DUNxfw64qJnapbmxrUHrw4p1uTlpSpQWJrz1qrFYrX6Co1ntVupkPoP2ATPTz8KdOzEf1qyx34b3I5t51aTSO+B9YE5kPzpHkWsWcSC/unY+GINqMsRgBg9Xo2KtGVYvZygUiOQfTLnS7Xasx6+wZOojbXUiWiE3BsYiu3NazQNLU40KyxDLNWmHtVzb1WcAVG3bEJsc97NygMoYqX+f+2NXS5OlfxHkLmjBeoI5Zpr7tjYq+070nMiKa+1l0W+0oN1RCSZIMVo3ZlB48ClJFFkPzfuMGv5QxhwKswe2uczoqYUdtNQGJLAdzomMISpAxbaFAbk4N1ifTG6e71DNiOt62SbnmidV1uH6qfMZRr05OYppZsGtxOgLlZCswq2uPYhbELKobmzYEW6KS0zsS92zXfbcTYWmzAtroMLD3dbioaXJiYzRNNJoAgY3FyB8qQKBv0UyDChD4NrslXnFOtAI+xl9rYK+o2R9uMV+ZEPcJVF/orr7wdgdfgQ2hpJnAJl+kHSqDqR8uCFrGkKGxvOs2Bz6V4Zl+c0PR7GpcN80a6zED36FCeUrfvDQQfD+0R20EfAMWCzy0eDGX46GJbCPQnC6Nk97xKluv/SPcVFldT/5OwAXUmzUU32XDT4uVrhW6pUtcsnpon+WaVXTqTS5rPTrk1oCsCBdQv+GVR4Hs0urLCFC/ratDzYmhYnYxjQkQ3Tdn15YzMeGag+voZZe13hf01pteFWoPxpgCueRaKTY+zr+psHzc5iE85xQpwRTdqyXvcOOzRFMnt5XwZmDyWzDJ9c5NboqPD3iGFHzR6LwZwMdjfN8m9lI8tM9Sf2FzB82RYnWa1Pg2PDTmUWbGvf1pKBbfg3OQlcmWLj02+SU19y7avNDci/FqUwPmiYKao7fI+tV4ia34MZLg2uWYOOnn09CJOH1e3XW4XkmWDH4s173NYSE32UbfKZcQCQc1EYOfTwsuyRD4dU2d/yp+4WM2ErN1drHJ/f2O63Vv5C2uPN5fSXmsSICINvqyQy94v9zjMatBjrCghnc9YcLQ8fZWKYQgvHssKqD97PqiSONE8lCebmOAMx0vgZvko3uRdlEn6G3J6DLbbftOqcs7k4mLWZ1kY3JjLEp+aJkfsykaCjZO76w3byU7H/md0q59aC2gHYquG6My5IrDPSDIJbrooEHl4tN6cVAKN51fr/Qtig2zBMs6CuumIpp4YxVdApu3JV3ctV6vZCQrBtJCN0pGpuhaFANSR9dLqF0FyIStXbrbgNWiyC8pSSq8DH6hzXnNws+DmGrI+zqlcZJ3ajf3G+P5lXp3V73Flx8dkl0cZn69UkvWmd+Nq9oKZAEu3umqxrtsHtR0LMzCNMzoaMgrhCZT6aLTPPntMt+iOPjx7qhTyvwcYnQXKG88UHCfsPFAwa2h8kvZwT2tXRBlR0e/y5mfOFF6ZU7Ymx2D4y9zXBGDI/cw0Igu67wohBsgIKwsfsUrRsVKid9b9sghNX67O6lfT9yxu74FQdbAb3dEz8vnjt1FAHRUNFTWplnnRa2mNbhnXSKXCxYBUKiZnAiPDlS+oZVXAtJtspIxDAS0fartgID2QFb2iVFpK5E7dt8aKN4J4JPo2bWwZUY/znhHfig3OdK0XSn8foqq9eS4eQq2uba9gOFbchzCybv61PdJE5oa7zFRJ7vvyuloxLLL4DUMBMwPCC2homIvz6TjyeTl7vuu8O1V12fJ6Sz/XULcJ+q/qyjj23f+u5Ay95G4b+7YvB3ruqszeoTi8gsZ97MU9+YD96kUBy2w7F+K3x/ss3wYj09ruvkw59Gvd9sXKPtZOL3jzou/9cHrQ2F9/qPfvbUdb/94+6KvHz799NPX7wl7/3v9YjD70dcvFcvf/gc=);lineShape=1;" vertex="1" parent="XJAstwMBB5YRr8NqRWwe-71">
          <mxGeometry x="130.94318555332757" y="976.71298634781" width="602.74" height="800.69" as="geometry" />
        </mxCell>
      </root>
    </mxGraphModel>
  </diagram>
</mxfile>
